<svg id="Layer_1" data-name="Layer 1" xmlns="http://www.w3.org/2000/svg" viewBox="0 0 298.41 221.87"><defs><style>.cls-1{fill:#77c9b1;}.cls-2{fill:#112e50;}.cls-3{fill:#1b755b;}.cls-4{fill:#f69e79;}.cls-5{fill:#fdfefe;}.cls-6{fill:#606161;}</style></defs><g id="Group_2553" data-name="Group 2553"><g id="Group_2537" data-name="Group 2537"><path id="Path_4236" data-name="Path 4236" class="cls-1" d="M5.93,190.31c-2.15-11.27-1.39-22.66-1.45-34a3.62,3.62,0,0,1,1.16,1.24A104.14,104.14,0,0,0,31.2,182.61a165.71,165.71,0,0,0,16.36,9.63c.75.4,1.8.89,2.41.48s.14-1.51,0-2.29a9.74,9.74,0,0,0-.59-1.75A68.87,68.87,0,0,0,14.82,154c-3.35-1.55-6.84-2.83-10.27-4.24a1.93,1.93,0,0,0,1.29-1.88C6.22,140.6,8,133.54,10,126.55A137.14,137.14,0,0,1,26.41,89.64c9.08-14.09,20.78-25.21,36.5-31.71a129.75,129.75,0,0,1,17.54-5.52,24.39,24.39,0,0,0-1.1,11.8A21.72,21.72,0,0,0,101.19,82.4c9-.08,15.51-4.55,19.5-12.6,2.8-5.65,2.47-11.49.74-17.36a2.17,2.17,0,0,1,1.45,1.94c.49,3.48,1.29,6.9.26,10.46a5.05,5.05,0,0,0,1.62,5.33c7,6.33,13.77,12.88,21.07,18.85.48.39,1.11,1.34,1.59.85s-.41-1.18-.79-1.7a37.13,37.13,0,0,1-6.95-14.58c-1.53-7.4-.08-14.34,3.24-21,5-10.16,13.64-15.26,24.38-17.41,14.76-3,27.7,1.06,39.1,10.46,3.07,2.53,5.72,5.57,8.62,8.33,5.82,5.56,12.86,8.52,20.62,10.06a100.73,100.73,0,0,1,15,3.69,28.52,28.52,0,0,1,8.67,4.62c5.58,4.61,6.94,10.59,5.13,17.38-2.08,7.83-7.49,12.74-14.64,15.94s-14.44,4.73-22,5.8l-4.1.55a3.93,3.93,0,0,0-2.11,1c3.23.7,6.37.8,9.4,1.58-.31.36-.61.73-.94,1.07-2.23,2.28-4.48,4.54-6.71,6.82-1.33,1.38-1.28,2.23.15,3.45.25.22.53.41.78.63a2.6,2.6,0,0,1,.71,3.61l-.13.18a7.73,7.73,0,0,0-.93,1.75c-1,3.1-1.45,3.42-4.67,3.17-1.33-.1-2,.42-2,1.76,0,3.71,0,7.43,0,11.14a1.6,1.6,0,0,0,1.45,1.75h.21a5.78,5.78,0,0,0,1.55-.14,2.25,2.25,0,0,1,2.86,1.38l0,0c.42,1.05,1,2,1.43,3.1,1.09,2.87,1.38,3.21-1.23,5a2.68,2.68,0,0,0-.52.49c-.94,1-1,1.83.17,2.65a52.33,52.33,0,0,1,6.84,6.47c2.18,2.29,2.92,2.24,5-.12a2,2,0,0,1,2.8-.64l.09.06a12.82,12.82,0,0,0,3.65,1.56,2.61,2.61,0,0,1,2,2.77c0,.58,0,1.15-.07,1.72-.11,1.27.43,1.83,1.73,1.82,3.71,0,7.43,0,11.14,0,1.51,0,1.9-.46,1.66-1.93a3.85,3.85,0,0,1,2.07-4.29,13.13,13.13,0,0,1,3-1.31c2.12-.65,3.26-.31,4.63,1.41,1.1,1.4,1.57,1.42,2.78.06a81.36,81.36,0,0,1,6.75-6.77c2-1.8,2-3-.1-4.75-1.27-1.05-1.43-1.93-.56-3.35a8.41,8.41,0,0,0,1.1-2.3c.7-2.73,1.5-3.25,4.4-2.89a1.78,1.78,0,0,0,2.23-1.19,1.75,1.75,0,0,0,.06-.79c0-.76,0-1.52,0-2.28a3.77,3.77,0,0,1,2.55,2.1c5.82,9.29,10.18,19.16,11.65,30.11a83,83,0,0,1-5.7,44.29,75.63,75.63,0,0,1-12.25,20.5c-1.25,1.42-2.8,2.61-3.39,4.53-2.45-1.44-4.69-3.22-7.36-4.34a40,40,0,0,0-25.54-1.81c-3.91.94-7.71,2.09-10.9,4.67-1.1.19-2.32-.28-3.58.69l3.85,1.12a4.43,4.43,0,0,1,.93,1.37,16.45,16.45,0,0,1-2.22.3c-2.12-.14-4.24-.22-6.36-.32.13-.6.27-1.2.41-1.8a3.86,3.86,0,0,0,2.42-.68c2.14-1.7,4.68-2.87,6.54-4.94.8-.88,1.86-1.55,2.27-2.76-1,.56-1.72,1.33-2.62,1.94-.34.22-.54.51-1,.23s0-.68.11-.93a64,64,0,0,1,5-6.8c1.46-1.79,2.94-3.55,4.5-5.43a11.15,11.15,0,0,1,0,5.17l-.3.27a17.14,17.14,0,0,0-4.47,4.71c.78-.33,1.67-.67,2-1.3a1.81,1.81,0,0,1,2.22-.93,8.66,8.66,0,0,0,3.76,1.26,48.55,48.55,0,0,0,27.05-4.53,60.06,60.06,0,0,0,13.19-9c.44-.39,1.24-.54,1-1.37s-.94-.82-1.62-.9a56.75,56.75,0,0,0-14.5,0,55.6,55.6,0,0,0-22.11,7.94c-.54.34-1,.51-1.55.07.42-1.21,1.84-1.74,2.12-3.08a17.45,17.45,0,0,0-2.54,2.47c-.61.71-1.93.76-1.94,2v0c-.3,0-.29-.28-.37-.47.86-2.37,2.37-4.39,3.48-6.63a14.31,14.31,0,0,0,1.76-4.87c.86-1.19,1.7-2.41,2.6-3.57q8.46-10.92,17-21.82c.28-.21.27-.42,0-.63l-.05-.07c-.66-1.66-2-2.12-3.66-2.18-6.43-.24-12.89-.12-19.33-.21-17.41-.22-34.83-.09-52.25-.35h-.71c-.28,0-.59,0-.69-.36-.34-1.27-1.18-1.1-2.13-.8a56.1,56.1,0,0,0-30.71,22.92,2.62,2.62,0,0,1-1.43,1.31,15.62,15.62,0,0,1,2.25-6.19,10,10,0,0,0,3.86-3.3,70.71,70.71,0,0,0,16-34.84c.54-3.41,1.34-6.83.8-10.33-.09-.58.21-1.49-.39-1.68s-1.11.58-1.59,1a61.69,61.69,0,0,0-16.43,24.73c-2.31,6.36-3.11,13-4.15,19.62a4.23,4.23,0,0,0,.6,2.88,14.66,14.66,0,0,1-1.19,4.91,10,10,0,0,0-1,4.65h0c-1.66.41-1.66.41-1.49-1.06a.5.5,0,0,0,.4-.51c.16-1.75.44-3.5.47-5.25A63.58,63.58,0,0,0,155.32,189a58.59,58.59,0,0,0-9.21-18.86c-.38-.51-.74-1.26-1.53-1.09s-.76,1-.88,1.63a55.11,55.11,0,0,0-1.1,9.05,50.11,50.11,0,0,0,4.22,21.93c2,4.55,4.31,8.9,8.17,12.22.21.37.41.75.63,1.11a4.09,4.09,0,0,1,.11,4.73,41.5,41.5,0,0,0-3.07,7.73,1.74,1.74,0,0,1-1.58.46,48.26,48.26,0,0,1-5.2-2c-3.16-1.28-4.18-3.72-4.14-6.86,1-.08,1.49-.53,1.37-1.66-.54-5.23-1.16-10.47-1.94-15.64a159.7,159.7,0,0,0-4.08-19.36,17,17,0,0,0-6.93-9.64c-2-1.41-4.07-2.81-6.14-4.16a24.73,24.73,0,0,0-8.56-3.78c-.09-.58-.51-.8-1-1.07a2.54,2.54,0,0,1-1.19-3.4,2,2,0,0,1,.18-.32,27.7,27.7,0,0,0,3.52.41,5.17,5.17,0,0,0,4.81-2.95,3.29,3.29,0,0,0,1.93-1.12c2.41-2.58,4.9-5,5.94-8.64.89-3.16,2.43-6.15,3-9.46a23,23,0,0,1,.77-2.73c.24-.22.6-.4.71-.67,1.08-2.87,2.49-5.59,3.31-8.59a33.89,33.89,0,0,0,1.33-10.69c-.28-5.65-2.89-10.23-6.87-14.11a9.16,9.16,0,0,0-2.38-2.58c-2.6-2-5.67-2.93-8.78-3.73a19.75,19.75,0,0,0-9.27-2.8,27.21,27.21,0,0,0-26.8,15.73c-3.33,7.28-3.05,14.84-1.54,22.48a6.87,6.87,0,0,1-.65,2.71c-4.53-.37-7.18,1.47-8.32,5.79-.19.69-.33,1.39-.51,2.08a4.82,4.82,0,0,1-4.51,3.74c-1.46.15-2.94.22-4.41.23-5.69,0-8.76,2.15-10.85,7.5-1.18-.37-1.3-1.55-1.77-2.42a31.23,31.23,0,0,0-3.18-5.56c-.58-.7-.87-.71-1.17.24a58.56,58.56,0,0,0-2.69,14.54c-.58,10.61,2.34,20.42,7,29.81a13.22,13.22,0,0,0,3.55,4.6c.1,1.37.21,2.73.3,4.1,0,.26.08.61-.31.68a.55.55,0,0,1-.68-.35c-.28-.79-1.3-1-1.37-2a1,1,0,0,0-.92-.77c-.68-.05-.37.5-.43.81-.1.49-.42.42-.76.35l-1.93-.42c-.19-.64-.76-.8-1.28-1A66.07,66.07,0,0,0,36.71,191,64.62,64.62,0,0,0,15,189.14C11.92,189.38,8.94,190,5.93,190.31Zm247.19,34.26c1.4.87,2.44-.22,3.56-.71A67.26,67.26,0,0,0,287,197.44a47.38,47.38,0,0,0,4.23-7.76c.4-1,.06-1.19-.85-1a32.14,32.14,0,0,0-4.61,1.48,62.89,62.89,0,0,0-28.28,22.75c-2.32,3.27-4.48,6.61-5.43,10.58-.14.55-1,1-.46,1.6s.71-.63,1.27-.5a.84.84,0,0,0,.27,0Zm-181.87-117a21.87,21.87,0,0,0-20.44-23.1,22.39,22.39,0,0,0-23.76,20.94,21.86,21.86,0,0,0,.22,4.85c2.48,15.74,20.87,23.94,34.22,15.1a52.62,52.62,0,0,1,14.8-6.56c.39-.11,1,0,1.06-.52s-.38-.84-.78-1.09C72.53,114.67,71,110.91,71.25,107.61ZM191.4,98.87a23.58,23.58,0,0,0,23.5-23.5c.19-11.86-10.12-23.75-23.57-23.66a23.58,23.58,0,1,0,.07,47.16Zm-9,16.06c-6.25-.15-12.34.19-18.42.23-3.09,0-4.63,1.24-5.43,4.22a26.92,26.92,0,0,0-.71,6.64,28.5,28.5,0,0,0,.71,7.64c.78,3,2.41,4.3,5.5,4.39.38,0,.76,0,1.14,0a.71.71,0,0,1,.72.38c.15.32-.07.51-.29.72-2,1.93-4,3.87-6.06,5.81-.33.31-.91.6-.64,1.15s.94.26,1.41.17a6.43,6.43,0,0,0,1.62-.54c3.59-1.81,7.16-3.65,10.73-5.49,2.35-1.22,4.65-2.31,7.46-2.24,6.57.15,13.14.06,19.71,0a6,6,0,0,0,5.59-5.57q0-5.92,0-11.85c0-2.63-2.76-5.47-5.36-5.47-5.95,0-11.89-.38-17.68-.2Z" transform="translate(-0.95 -34.2)"/><path id="Path_4237" data-name="Path 4237" class="cls-2" d="M284.31,145.69c0,.76,0,1.52,0,2.28a1.79,1.79,0,0,1-1.5,2A1.75,1.75,0,0,1,282,150c-2.9-.36-3.7.16-4.4,2.89a8.29,8.29,0,0,1-1.09,2.31c-.87,1.42-.72,2.29.56,3.35,2.07,1.71,2.12,2.94.1,4.74a82.92,82.92,0,0,0-6.75,6.77c-1.22,1.36-1.68,1.34-2.78,0-1.37-1.73-2.51-2.07-4.64-1.42a13.52,13.52,0,0,0-3,1.31,3.88,3.88,0,0,0-2.07,4.29c.25,1.47-.15,1.93-1.65,1.94-3.72,0-7.43,0-11.15,0-1.29,0-1.83-.55-1.72-1.82,0-.57.06-1.14.07-1.71a2.62,2.62,0,0,0-2-2.78,12.85,12.85,0,0,1-3.64-1.55,2,2,0,0,0-2.83.49l-.06.09c-2.08,2.36-2.83,2.4-5,.11a53.54,53.54,0,0,0-6.84-6.46c-1.13-.83-1.11-1.62-.18-2.66a3.43,3.43,0,0,1,.52-.49c2.62-1.78,2.32-2.13,1.24-5-.4-1.06-1-2-1.44-3.1a2.24,2.24,0,0,0-2.83-1.43l-.05,0a5.74,5.74,0,0,1-1.55.13,1.59,1.59,0,0,1-1.66-1.54v-.21c0-3.72,0-7.43,0-11.15,0-1.33.71-1.86,2.05-1.76,3.22.26,3.71-.07,4.66-3.16a7.56,7.56,0,0,1,.94-1.75,2.63,2.63,0,0,0-.41-3.67l-.18-.13c-.25-.22-.52-.41-.78-.62-1.43-1.23-1.48-2.08-.14-3.45,2.22-2.29,4.47-4.55,6.7-6.83.34-.33.63-.71.94-1.07,1.21-.94,2.09-.41,2.9.6,1.62,2,2.58,2.17,4.92,1.06a20.69,20.69,0,0,1,2.29-.8c2-.68,2.55-1.54,2.38-3.64-.19-2.31.14-2.67,2.44-2.68h10c1.88,0,2.18.32,2.14,2.16-.08,3.1.3,3.6,3.34,4.5a7.27,7.27,0,0,1,1.67.78c1.61,1,2.72.79,3.89-.6,1.87-2.25,2.5-2.32,4.47-.13,2.14,2.38,4.48,4.54,6.77,6.75,1.37,1.33,1.29,2-.22,3.21-1.92,1.52-2.21,2.91-.92,5a8.08,8.08,0,0,1,1,2.63,2.23,2.23,0,0,0,2.5,1.93l.2,0c2.83-.3,3.66.41,3.53,3.3C284.16,141,284.32,143.32,284.31,145.69Zm-33.77,9.53a12.4,12.4,0,0,0,12.79-12c0-.16,0-.32,0-.48A12.62,12.62,0,0,0,250.84,130h-.11A12.39,12.39,0,0,0,238,142.07v.35a12.49,12.49,0,0,0,12.2,12.79Z" transform="translate(-0.95 -34.2)"/><path id="Path_4238" data-name="Path 4238" class="cls-2" d="M226,248.9c2.12.1,4.24.17,6.36.31a16.45,16.45,0,0,0,2.22-.3c4.36.62,8.72.18,13.09.07a13.89,13.89,0,0,0-2.86-.47q-5.58-.49-11.17-1l-3.85-1.13c1.27-1,2.49-.49,3.59-.68a14.67,14.67,0,0,0,2.11.83,47.3,47.3,0,0,0,6.5.69,141.63,141.63,0,0,0,23.3.25c2.36-.19,4.72-.43,7.09-.62.43,0,1.13-.2,1.22.39s-.67.58-1.06.64a27.64,27.64,0,0,1-7.91.52c-.46-.05-.94-.1-1.4.78,4.32-.23,8.43-.09,12.55,0,2,.1,4-.53,6,0a1.32,1.32,0,0,1,1.22,1.28,14.33,14.33,0,0,1,.17,3.27,2,2,0,0,1-2,2.11H24a21.13,21.13,0,0,0-3.55.19c-1.45.25-1.94-.19-2-1.64,0-1.24,0-2.48,0-3.71s.58-1.71,1.84-1.7c8,0,15.91,0,23.86,0a32.18,32.18,0,0,0,5.8.23c4.83,0,9.67.18,14.49-.21a4.12,4.12,0,0,0,2.38.21A33.48,33.48,0,0,1,71,249l49.42,0c.53,0,1-.05,1.57-.08s1.33,0,2,0h99.19Z" transform="translate(-0.95 -34.2)"/><path id="Path_4239" data-name="Path 4239" class="cls-2" d="M121.43,52.44c1.74,5.88,2.06,11.71-.74,17.36-4,8-10.55,12.53-19.5,12.6A21.72,21.72,0,0,1,79.35,64.21a24.23,24.23,0,0,1,1.1-11.79c3.29-6.94,8.17-11.8,16.06-13.33a21.53,21.53,0,0,1,15,2.13,20.15,20.15,0,0,1,9.38,10.22A7.46,7.46,0,0,0,121.43,52.44Zm-19.07,6.29c.26-5.31.1-10.63.1-15.94,0-1.37-.51-1.55-2-.87a6.59,6.59,0,0,0-.27,2.25c0,3.43,0,6.86,0,10.28a9.65,9.65,0,0,1-4.69,8.87c-3.23,2.09-6.35,4.34-9.52,6.52a4.32,4.32,0,0,0-.66.54.9.9,0,0,0-.1,1.27h0c.36.5.75.14,1,0a22.22,22.22,0,0,0,3.25-2.18,54.43,54.43,0,0,1,4.52-3.21c1.57-1.12,3.29-2,4.84-3.2a2.87,2.87,0,0,1,2-.71c1.5.1,2.19-.8,1.83-2.26-.12-.46-.28-.91-.42-1.36Z" transform="translate(-0.95 -34.2)"/><path id="Path_4240" data-name="Path 4240" class="cls-3" d="M4.55,149.8c3.43,1.41,6.92,2.69,10.27,4.24a68.87,68.87,0,0,1,34.52,34.64,9.74,9.74,0,0,1,.59,1.75c.18.78.66,1.85,0,2.29s-1.65-.08-2.4-.48a165.71,165.71,0,0,1-16.36-9.63A104.14,104.14,0,0,1,5.64,157.52a3.51,3.51,0,0,0-1.16-1.23,15.33,15.33,0,0,0-1.83-3.38c-.28-.49-.63-1-.87-1.47-.71-1.48-.56-1.7,1.06-1.69Zm30.81,26.49-.17-.08.08.17.17.09A1.42,1.42,0,0,0,35.36,176.29Zm2.25,2.34.28.28a.87.87,0,0,0,.85.87l.07.26L39,180l-.18-.2a2.1,2.1,0,0,0-.86-.86l-.29-.29-.28-.28a1.45,1.45,0,0,0-1.11-1.27c-.26-.06-.31.19-.27.37a1.2,1.2,0,0,0,1.36.92Zm-3.15-3.15.11.06-.09-.08-.29-.28c-.15-.25-.31-.48-.65-.42a.12.12,0,0,0-.07.11c.12.35.43.31.7.33ZM15.31,159.76l.38.34.07-.11-.43-.26c-.19-.7-.95-.86-1.32-1.41a.35.35,0,0,0-.47-.15.3.3,0,0,0-.13.12.42.42,0,0,0,.11.6l0,0a4.2,4.2,0,0,0,1.78.85ZM10.17,156l-.26-.31c-.63-.54-1.25-1.11-1.91-1.61a.54.54,0,0,0-.77.08h0c-.18.28.06.57.3.69a4.42,4.42,0,0,0,2.34.88l.31.26c.1.9,1.12.89,1.5,1.54a.37.37,0,0,0,.5.07l.1-.12a.46.46,0,0,0-.22-.6,4.44,4.44,0,0,0-1.89-.88Zm33.48,29.11-.17,0,.09.1a1.42,1.42,0,0,0,1.19,1.62h0c.28.06.5-.09.43-.37a1.52,1.52,0,0,0-1.56-1.33ZM26.71,168.76c-.28-1-.66-1.62-1.56-1.8a.29.29,0,0,0-.35.25.14.14,0,0,0,0,.09c.2.89.8,1.34,1.91,1.46Zm4,3a1.52,1.52,0,0,0-1.23-1c-.3-.06-.44.17-.37.44.15.58.42,1.08,1.11,1.14.34,0,.53-.15.48-.54Zm-8.47-7.35c-.24.07-.54.15-.48.51a1.34,1.34,0,0,0,1,1c.24.08.51,0,.5-.3,0-.64-.47-1-1-1.24Zm19.89,18.82c-.14-.47-.29-1-.87-1.13-.29-.08-.46.12-.42.39a1.43,1.43,0,0,0,1,1.11c.21.08.31-.13.32-.37Zm6.61,7.22a1.07,1.07,0,0,0-.89-.94.35.35,0,0,0-.45.23.38.38,0,0,0,0,.15,1,1,0,0,0,.87,1c.28,0,.43-.11.48-.4Zm-28-26.87a1.08,1.08,0,0,0-.78-.91c-.25-.08-.51,0-.51.3,0,.51.36.72.78.87.25.09.46.08.51-.26Z" transform="translate(-0.95 -34.2)"/><path id="Path_4241" data-name="Path 4241" class="cls-1" d="M22.64,228.51a5,5,0,0,0-1.2-2.68c-1.64-1.93-2.77-4.19-4.26-6.22a7.25,7.25,0,0,1-1.5-3.78,9.61,9.61,0,0,1,3,.07,28.37,28.37,0,0,0,9.64,0c8.64-1,16.34-4.46,23.48-9.3.63-.42,1.31-.82,1.33-1.72,1.39-.76,2.57-2,4.29-2,.64,0,.53-.32.38-.73-1.17-3.21-.72-6.53-.74-9.82a3.71,3.71,0,0,0,1.18-1.74,25.23,25.23,0,0,0,2-9.7c1.29,0,2,.36,1.68,1.9a68.75,68.75,0,0,0-1,8.33,108.92,108.92,0,0,0-.06,19.45c.16,1.63-.42,2.16-1.8,2.36a22.32,22.32,0,0,0-4.55,0,56.72,56.72,0,0,0-27.71,12.19A25.13,25.13,0,0,1,22.64,228.51Z" transform="translate(-0.95 -34.2)"/><path id="Path_4242" data-name="Path 4242" class="cls-3" d="M22.63,228.51a24.8,24.8,0,0,0,4.18-3.32A56.72,56.72,0,0,1,54.52,213a22.41,22.41,0,0,1,4.56,0c-.86,1.16-2.27,1.34-3.44,1.94Q41,222.47,26.15,229.68a1.85,1.85,0,0,0-1.3,1.46,5.63,5.63,0,0,0,2.61-.84c5.58-2.78,11.14-5.62,16.74-8.36,4.91-2.41,9.71-5.07,14.74-7.24.46-.2,1-.85,1.56-.12-.85.89-1.72,1.77-2.55,2.68a65.33,65.33,0,0,1-10,9.58,39.08,39.08,0,0,1-19,7.26l-7.42,0c-.73,0-1.49,0-1.87-.75s.13-1.31.6-1.87C21.15,230.48,21.88,229.49,22.63,228.51Z" transform="translate(-0.95 -34.2)"/><path id="Path_4243" data-name="Path 4243" class="cls-3" d="M42.48,245.82a38,38,0,0,1-12-1.46c-.31-.1-.64-.16-.95-.28-1.23-.49-1.37-1.05-.42-2a26.91,26.91,0,0,0,3.14-2.9,1.73,1.73,0,0,0,1.58-.46c4.79-3.71,10.3-5.88,16-7.54a61.14,61.14,0,0,1,18.36-2.06,2.24,2.24,0,0,1,.49,2,14.38,14.38,0,0,0-3.31.85C55,235.42,45,239.78,34.12,241.78c-.49.09-1,.33-.85.89s.74.21,1.14.13a140.35,140.35,0,0,0,22.14-6.58c4.07-1.6,8.14-3.23,12.52-3.84l.19,1.14-.86.75C61,240.78,52.52,245.1,42.48,245.82Z" transform="translate(-0.95 -34.2)"/><path id="Path_4244" data-name="Path 4244" class="cls-3" d="M53.11,204.91c0,.9-.7,1.3-1.33,1.72-7.14,4.84-14.84,8.26-23.48,9.3a28.37,28.37,0,0,1-9.64,0,9.61,9.61,0,0,0-3-.07c-1.64-.42-3.3-.81-4.93-1.28-.6-.17-1.36-.29-1.42-1.16s.51-1.17,1.12-1.47a5,5,0,0,0,2-1.49,3.83,3.83,0,0,0,1.74-.58,77.64,77.64,0,0,1,7.12-3.28,73.07,73.07,0,0,1,23.3-5c3.3-.18,6.65-.5,9.86.77a1.81,1.81,0,0,1-1.12.81,119,119,0,0,1-33.29,8.09,7.37,7.37,0,0,0-3.77,1.06,35.55,35.55,0,0,0,8.05-.29A121.24,121.24,0,0,0,48,206.27,17.16,17.16,0,0,1,53.11,204.91Z" transform="translate(-0.95 -34.2)"/><path id="Path_4245" data-name="Path 4245" class="cls-3" d="M5.93,190.31c3-.34,6-.93,9-1.19A64.8,64.8,0,0,1,36.7,191a64.58,64.58,0,0,1,11.51,4.16c.51.24,1.09.4,1.28,1-.47,0-1,.1-1.42.11a145.93,145.93,0,0,1-15.36-.82,209.13,209.13,0,0,1-21.31-2.8l-3.22-.6c-.52-.1-1.07,0-1.18.54s.52.51.89.58c.79.16,1.59.29,2.38.44A233.09,233.09,0,0,0,35,196.9c4.45.35,8.9.64,13.35,1-.26.55-.77.65-1.29.77a68.64,68.64,0,0,1-23.66.69,82,82,0,0,1-15.75-3.81,31.1,31.1,0,0,1-6-2.6c-.31-.18-.76-.32-.68-.79s.48-.45.78-.54C3.13,191.14,4.53,190.73,5.93,190.31Z" transform="translate(-0.95 -34.2)"/><path id="Path_4246" data-name="Path 4246" class="cls-1" d="M68.25,229.16a61.24,61.24,0,0,0-18.37,2.06c-5.74,1.66-11.25,3.83-16,7.54a1.74,1.74,0,0,1-1.58.46c.1-1.38-.89-2.13-1.72-3A3.84,3.84,0,0,1,29,234.1a39.28,39.28,0,0,0,19-7.26,66.3,66.3,0,0,0,10-9.58c.82-.92,1.7-1.79,2.54-2.69a1.75,1.75,0,0,1,.23.5c.43,3.2,1.51,4.38,4.65,5a2.7,2.7,0,0,1,1.27.59C66.89,223.55,68.35,226.21,68.25,229.16Z" transform="translate(-0.95 -34.2)"/><path id="Path_4247" data-name="Path 4247" class="cls-3" d="M275.77,249.19c-4.12-.06-8.23-.2-12.54,0,.45-.88.93-.83,1.39-.77a27.65,27.65,0,0,0,7.91-.53c.39-.06,1.17,0,1.06-.63s-.78-.43-1.22-.39c-2.37.18-4.73.43-7.09.61a140.54,140.54,0,0,1-23.3-.25,48.89,48.89,0,0,1-6.5-.68,13.64,13.64,0,0,1-2.11-.84c3.19-2.58,7-3.73,10.9-4.67a40,40,0,0,1,25.54,1.81c2.66,1.12,4.91,2.9,7.36,4.34C277.44,248.4,275.89,248.29,275.77,249.19Z" transform="translate(-0.95 -34.2)"/><path id="Path_4248" data-name="Path 4248" class="cls-1" d="M7.62,195.5a81.29,81.29,0,0,0,15.75,3.81A68.39,68.39,0,0,0,47,198.62a1.58,1.58,0,0,0,1.29-.76,35.53,35.53,0,0,0,4-.19,2.26,2.26,0,0,1,2.31,1.2c.44.77.89,1.54,1.37,2.3.32.49.23.78-.4.87a8.73,8.73,0,0,0-1.09.28c-3.2-1.27-6.56-.95-9.86-.77a72.81,72.81,0,0,0-23.3,5,77.38,77.38,0,0,0-7.11,3.27,3.87,3.87,0,0,1-1.74.58,52.64,52.64,0,0,1-4.76-13.93C7.68,196.17,7.66,195.84,7.62,195.5Z" transform="translate(-0.95 -34.2)"/><path id="Path_4249" data-name="Path 4249" class="cls-1" d="M42.48,245.82c10-.71,18.47-5,25.92-11.56l.86-.74a4.14,4.14,0,0,1,.94,3,51.38,51.38,0,0,0-4.91,10.22c-.83.54-.8,1.41-.85,2.25-4.82.4-9.65.23-14.48.22a32.11,32.11,0,0,1-5.8-.23,2.17,2.17,0,0,0-.89-1.69A1.76,1.76,0,0,1,42.48,245.82Z" transform="translate(-0.95 -34.2)"/><path id="Path_4250" data-name="Path 4250" class="cls-3" d="M115.47,164.8a24.57,24.57,0,0,1,8.56,3.79c2.07,1.34,4.11,2.74,6.14,4.15a17.05,17.05,0,0,1,6.93,9.64,159.66,159.66,0,0,1,4.07,19.36c.78,5.17,1.4,10.41,2,15.64.11,1.13-.34,1.58-1.37,1.66-2.79,0-5.41,1-8.13,1.34-3.82.52-3.82.51-4.8,4.31-.12.46-.24.92-.32,1.39a1.88,1.88,0,0,1-1.19,1.45,16.25,16.25,0,0,1-5.35,1.38c-7.14.81-14.33.62-21.49,1.15a46.14,46.14,0,0,1-10.1-.44,2.31,2.31,0,0,1-2.21-2,16.27,16.27,0,0,1-.53-4.22,1.9,1.9,0,0,0-1.48-2.24,1.73,1.73,0,0,0-.32,0,15.42,15.42,0,0,0-3.84,0,19.92,19.92,0,0,1-7.49-.53,5.21,5.21,0,0,0-1.89-.55c-2.15-.39-4.33-.64-6.44-1.17-3.47-.87-3.8-1-4.23-5.17a19.14,19.14,0,0,1,0-2.14c0-4.66,0-9.32,0-14a64.57,64.57,0,0,1,.58-10.94c.51-3,1.38-5.92,1.43-9a.76.76,0,0,1,.51-.76,2,2,0,0,0,1.18-2.08c0-.66.11-1.41.79-1.51,2.31-.33,2.45-3.31,4.68-3.7.09,0,.19-.23.21-.36.14-.79.7-.87,1.37-.93,1.47-.14,2.76-.51,3.42-2.1a2,2,0,0,1,1.94-1,3,3,0,0,0,3.08-2.09,4.3,4.3,0,0,0,4-1.08c1.15-1.19,2.08-1.3,3.32-.2a12.33,12.33,0,0,1,1.65,2,38.64,38.64,0,0,0,15.57,12.83c2.88,1.27,5,.57,6.56-2.08A24,24,0,0,0,115.47,164.8ZM86,183.13c1.47,10.52,3,21,3.87,31.63A131.24,131.24,0,0,0,86,183.13Z" transform="translate(-0.95 -34.2)"/><path id="Path_4251" data-name="Path 4251" class="cls-2" d="M245.6,230.11c.08.2.07.45.37.48a2.5,2.5,0,0,1-2.3,2.31,11.19,11.19,0,0,0,0-5.18c-1.56,1.88-3,3.65-4.5,5.43a66.11,66.11,0,0,0-5,6.8c-.15.26-.66.56-.11.94s.62,0,1-.23c.89-.61,1.66-1.38,2.62-1.95-.41,1.22-1.47,1.89-2.27,2.77-1.86,2.06-4.4,3.24-6.54,4.94a3.78,3.78,0,0,1-2.41.67c-1.56-.14-3.11-.38-4.67-.41-10.66-.21-21.33.27-32-.28-6.08-.31-12.17-.43-18.26-.3-2.09,0-4.17,0-6.27.2a46.58,46.58,0,0,1-6.14,0c-1.46,0-1.73-.67-.89-1.91.54-.79,1.16-1.51,1.7-2.29q16.44-23.94,32.86-47.89a4.14,4.14,0,0,1,3.81-2c17,.21,34-.33,51,.56,7.45.4,14.93-.36,22.4-.25l.43-.06,0,.07v.63q-8.47,10.91-17,21.82c-.9,1.16-1.74,2.37-2.6,3.56a23.22,23.22,0,0,0-5.32,6.63A5.33,5.33,0,0,0,245.6,230.11Zm-33-11.82a12.21,12.21,0,0,0-6.61,1.52c-2.85,1.76-2.77,4.2.25,5.71a14.14,14.14,0,0,0,11.75.29,4.53,4.53,0,0,0,1.3-.86c1.89-1.68,1.72-3.71-.44-5a11.82,11.82,0,0,0-6.25-1.62Z" transform="translate(-0.95 -34.2)"/><path id="Path_4252" data-name="Path 4252" class="cls-4" d="M74.5,220.59a19.51,19.51,0,0,0,7.49.53,15.34,15.34,0,0,1,3.83,0,1.91,1.91,0,0,1,1.84,2,1.65,1.65,0,0,1,0,.31,16.3,16.3,0,0,0,.53,4.23,2.33,2.33,0,0,0,2.22,2,45.5,45.5,0,0,0,10.1.43c7.15-.52,14.34-.33,21.48-1.14a16.25,16.25,0,0,0,5.35-1.38,1.88,1.88,0,0,0,1.19-1.46c.08-.46.21-.92.32-1.38,1-3.81,1-3.8,4.8-4.32,2.72-.36,5.34-1.36,8.13-1.34,0,3.15,1,5.59,4.14,6.87a51.34,51.34,0,0,0,5.2,2,1.74,1.74,0,0,0,1.58-.46.55.55,0,0,0,.56.21,2.35,2.35,0,0,0,1.72.9c2.56-.16,4.89,1,7.39,1.14a6.88,6.88,0,0,1,2.19.57,77.8,77.8,0,0,1-8.77,12.88l-13.2.37a2.53,2.53,0,0,0-.81.2,3,3,0,0,1-2.47.17c-.74-.34-.79.17-.69.72-1.66,1.28-2.24,1.28-3.52,0,.23-.88-.32-.91-.95-.91-1.66,0-3.22-.25-4.15-1.87-.28-.48-.69-.4-1.12-.34-2.22-.27-4.52.36-6.66-.43a9.82,9.82,0,0,0-6.27,0,214.17,214.17,0,0,1-21.18,5.14,25.11,25.11,0,0,0-6.2,1.64,2.59,2.59,0,0,0,2.19.65q5.28,0,10.56-.11c5.24-.08,10.47.11,15.71.17,1.78,0,3.55-.05,4.73-2.15.09,1,.16,1.73.22,2.43-.52,0-1,.07-1.56.07L71,249a31.85,31.85,0,0,0-4.14.17,4.05,4.05,0,0,1-2.38-.22c0-.83,0-1.7.85-2.24.1,1.4,1,1.84,2.24,1.83,2.52,0,5-.09,7.55-.14,1.25,0,1.4-.31.76-1.4a2.31,2.31,0,0,0-.4-.58A13.1,13.1,0,0,1,72.19,240a6.4,6.4,0,0,0-2-3.54,4.08,4.08,0,0,0-.94-3c-.06-.39-.13-.77-.19-1.15.36-.53.11-.9-.33-1.21a2.26,2.26,0,0,0-.49-2c.1-2.95-1.36-5.61-1.61-8.49a5.27,5.27,0,0,1,2.91-.28C71.2,220.41,72.83,220.89,74.5,220.59Z" transform="translate(-0.95 -34.2)"/><path id="Path_4253" data-name="Path 4253" class="cls-2" d="M71.25,107.61c-.25,3.3,1.28,7.06,5.32,9.62.39.26.9.55.78,1.09s-.68.41-1.06.52a52.11,52.11,0,0,0-14.8,6.57c-13.36,8.83-31.74.63-34.23-15.11A22.39,22.39,0,0,1,50.8,84.51,21.88,21.88,0,0,1,71.25,107.61ZM53.52,91c-3.26.18-5.49,4-4,6.75a2.8,2.8,0,0,1,.14,3,78.94,78.94,0,0,0-5,10.21A2.37,2.37,0,0,1,43,112.35a5.63,5.63,0,0,0-4.28,4.6,5.17,5.17,0,0,0,2,4.8,5.28,5.28,0,0,0,6.73.23c2.15-1.69,2.64-3.86,1.39-6.61a2.31,2.31,0,0,1,.11-2.4A54.59,54.59,0,0,0,54,102.35c.16-.44.41-1.1.84-1.08,1.75.07,2.51-1.39,3.66-2.21,2.25-1.62,1.75-5.18.09-6.44a3,3,0,0,0-.39,1.65c.24,1.65-.7,2.58-1.81,3.59a2.76,2.76,0,0,1-3.35.46,2.44,2.44,0,0,1-1.39-2.57c0-1.41-.21-2.87,1.35-3.74A1.27,1.27,0,0,0,53.52,91Z" transform="translate(-0.95 -34.2)"/><path id="Path_4254" data-name="Path 4254" class="cls-2" d="M74.5,220.59c-1.67.3-3.3-.18-5-.2a5.25,5.25,0,0,0-2.91.28,2.7,2.7,0,0,0-1.27-.59c-3.14-.62-4.22-1.8-4.65-5a1.8,1.8,0,0,0-.22-.49c-.58-.73-1.1-.07-1.56.13-5,2.16-9.83,4.82-14.74,7.23-5.6,2.74-11.16,5.58-16.74,8.37a5.65,5.65,0,0,1-2.61.83,1.86,1.86,0,0,1,1.29-1.46q14.86-7.17,29.5-14.77c1.17-.61,2.58-.79,3.43-1.95,1.38-.2,2-.73,1.8-2.36a110.83,110.83,0,0,1,.06-19.45,73,73,0,0,1,1-8.33c.31-1.54-.39-1.91-1.68-1.9a27.2,27.2,0,0,0-3.56-1.73c-1-.51-1.46-.45-1.32.85.28,2.44.4,4.9.73,7.34a16.21,16.21,0,0,0,1,5c0,3.3-.43,6.62.73,9.83.15.41.26.72-.38.73-1.72,0-2.9,1.24-4.29,2A16.9,16.9,0,0,0,48,206.26,121.24,121.24,0,0,1,24.36,212a35.53,35.53,0,0,1-8,.29,7.41,7.41,0,0,1,3.78-1.06,118.9,118.9,0,0,0,33.28-8.09,1.8,1.8,0,0,0,1.13-.81,10.29,10.29,0,0,1,1.09-.29c.62-.09.71-.37.39-.87-.48-.75-.93-1.52-1.37-2.29a2.24,2.24,0,0,0-2.31-1.2,35.3,35.3,0,0,1-4,.19c-4.45-.32-8.9-.62-13.35-1a230.31,230.31,0,0,1-24.69-3.23c-.8-.15-1.59-.29-2.38-.45-.38-.07-1,0-.89-.58s.66-.63,1.17-.54l3.22.6a209.5,209.5,0,0,0,21.31,2.8,148.68,148.68,0,0,0,15.36.83c.48,0,.95-.08,1.42-.12.65.14,1.29.29,1.94.42.33.07.65.14.75-.35.06-.3-.25-.86.44-.81a1,1,0,0,1,.92.78c.06,1,1.09,1.22,1.36,2a.57.57,0,0,0,.69.36c.38-.08.32-.42.3-.68-.09-1.37-.2-2.74-.3-4.1-.24-2.74-.47-5.48-.74-8.22-.18-1.89-.76-3.82-.52-5.64a5.39,5.39,0,0,0-1.21-3.86,6.56,6.56,0,0,1-.62-6.64,2,2,0,0,0,.07-1.37q-1.71-7.72-3.37-15.45c-.1-.48-.48-1.16.21-1.35s.61.62.72,1c.93,3.58,1.79,7.18,2.42,10.84a20.85,20.85,0,0,0,.93,4.69c2.58-2,3.2-4,2.15-6.77-.21-.58-.51-1.12-.76-1.69a10.85,10.85,0,0,1-1-6.77c2.09-5.35,5.16-7.46,10.85-7.5,1.47,0,3-.09,4.41-.24a4.8,4.8,0,0,0,4.51-3.74c.19-.68.33-1.38.51-2.07,1.15-4.32,3.8-6.17,8.32-5.79a19.21,19.21,0,0,0,0,8.6,9.11,9.11,0,0,0,1.58,3.27,9.35,9.35,0,0,0-.53-3.67c-.81-3.27-.88-6.49.88-9.53a3,3,0,0,1,4-1.55,2.94,2.94,0,0,1,.93.63c3.7,2.95,5.38,9.87,3.45,14.22-1.72,3.89-4.06,4.33-7,1.34-.36-.36-.62-1-1.36-.76,1,3.23,3.78,5,7.78,5.1a35.17,35.17,0,0,1-2.62,6.39A7.82,7.82,0,0,1,85,161.1a7.92,7.92,0,0,0-3.94,2A3,3,0,0,1,78,165.22a2,2,0,0,0-1.94,1c-.66,1.6-2,2-3.42,2.1-.67.07-1.23.15-1.37.94,0,.13-.12.34-.21.35-2.22.39-2.37,3.37-4.68,3.71-.68.1-.79.85-.79,1.51a2,2,0,0,1-1.18,2.08.75.75,0,0,0-.51.76c-.06,3.06-.93,6-1.43,9a63.43,63.43,0,0,0-.58,10.93c0,4.66,0,9.32,0,14a19.07,19.07,0,0,0,0,2.14c.43,4.17.76,4.31,4.23,5.18,2.11.52,4.29.77,6.43,1.16A5.78,5.78,0,0,1,74.5,220.59Z" transform="translate(-0.95 -34.2)"/><path id="Path_4255" data-name="Path 4255" class="cls-3" d="M135.06,244.67c1.28,1.25,1.87,1.24,3.52,0l14.94,0c1.1,0,2-.26,2.24-1.49a77.66,77.66,0,0,0,8.76-12.87c.66-.36.95-1,1.4-1.58,3.35-4.08,5.71-8.85,9.09-12.91a6.37,6.37,0,0,0,.86-1.78c.28-.76-.12-1-.79-.77a4.16,4.16,0,0,0-1.27.62,32.33,32.33,0,0,1-5.26,3.11c-3.51,1.8-7.07,3.5-11.18,3.34l.36-1.38.07-.09a.17.17,0,0,0-.06-.06l-.09.08c-.94,0-.92-.37-.48-1a6.05,6.05,0,0,0,1.05-3.57h0c.93-.05,1.19-.67,1.23-1.47a2.59,2.59,0,0,0,1.43-1.31,56.09,56.09,0,0,1,30.7-22.92c1-.29,1.8-.47,2.14.8.09.36.41.35.68.37h.72c17.42.26,34.84.12,52.25.35,6.44.09,12.89,0,19.33.21,1.62.06,3,.52,3.65,2.18a3,3,0,0,1-.42.06c-7.47-.11-14.94.64-22.41.25-17-.89-34-.35-51-.56a4.13,4.13,0,0,0-3.8,2q-16.4,24-32.86,47.88c-.54.79-1.16,1.51-1.7,2.3-.84,1.24-.57,1.87.89,1.9a44.93,44.93,0,0,0,6.14,0c2.1-.24,4.18-.16,6.27-.2,6.09-.13,12.18,0,18.26.3,10.66.55,21.32.06,32,.28,1.56,0,3.11.27,4.67.41L226,248.9l-2.86,0H123.94c-.67,0-1.33,0-2,0-.06-.7-.13-1.4-.22-2.42-1.18,2.09-2.94,2.16-4.73,2.14-5.24-.06-10.47-.24-15.71-.17q-5.28.08-10.56.11a2.53,2.53,0,0,1-2.18-.65,24.92,24.92,0,0,1,6.19-1.64,211.4,211.4,0,0,0,21.18-5.14,9.82,9.82,0,0,1,6.27,0c2.14.8,4.45.17,6.66.44l.08,1.38c-.86,1.38-2.24,1.18-3.55,1.15-1.84-.06-1.84-.07-2.55.55a40.39,40.39,0,0,0,6.69-.1Zm41.49-41.18.29-.29.31-.25a.83.83,0,0,0,.91-.55,1.5,1.5,0,0,0,1.66-1.76l.09-.07-.05-.06-.08.09c-.94.19-1.65.61-1.76,1.67a1.36,1.36,0,0,0-.85.59,3.88,3.88,0,0,0-.26.31l-.28.29-.05.12Zm5.4-4.62-.1.17.16-.11.28-.28a1,1,0,0,0,1.16-.78,1.09,1.09,0,0,0,0-.36l.08-.09-.06-.06-.09.09a1,1,0,0,0-1.15.87,1.31,1.31,0,0,0,0,.28Zm-10.55,9.18-.32.25a2.76,2.76,0,0,0-2.61,1.42c-.12.21-.25.44-.09.66s.44.07.64,0a3.83,3.83,0,0,0,2.11-2l.27-.3Zm16.25-13.73c0-.38-.14-.51-.43-.51-.52,0-1.7,1.24-1.7,1.78,0,.32.17.45.44.38a2.21,2.21,0,0,0,1.69-1.64Zm-21.22,17.51c-.73.15-1.2.32-1.27.95a.31.31,0,0,0,.26.35h.08c.68-.08.85-.57.93-1.29Zm-6,5.31c0-.21,0-.41-.3-.39a1,1,0,0,0-1,.87c-.07.3.14.42.42.36a1.1,1.1,0,0,0,.83-.84Zm15.08-13.24a.93.93,0,0,0-.69.79c0,.28.13.45.43.34a.87.87,0,0,0,.63-.83c0-.22-.16-.3-.37-.29Z" transform="translate(-0.95 -34.2)"/><path id="Path_4256" data-name="Path 4256" class="cls-2" d="M191.4,98.87a23.58,23.58,0,1,1-.07-47.16c13.45-.09,23.76,11.8,23.56,23.66A23.57,23.57,0,0,1,191.4,98.87Zm-4.15-24.32c-5,.42-7.27,3.53-8.3,7.87-.46,1.94-.88,3.89-1.39,5.82s-.32,2.6,1.38,3.71a21.77,21.77,0,0,0,10.31,3.38,23.17,23.17,0,0,0,14.58-3.44,2.78,2.78,0,0,0,1.53-3.09,55.12,55.12,0,0,0-3-9.92,5.75,5.75,0,0,0-4.22-3.77c-2.26-.54-2.19-.68-1-2.75s2.24-4.15,1.55-6.61a7.21,7.21,0,0,0-5.89-5.36,7.08,7.08,0,0,0-7.45,2.82,7.21,7.21,0,0,0-.62,7.93,18.14,18.14,0,0,0,2.56,3.4Z" transform="translate(-0.95 -34.2)"/><path id="Path_4257" data-name="Path 4257" class="cls-2" d="M131.92,101.46c4,3.88,6.58,8.46,6.86,14.11a33.89,33.89,0,0,1-1.33,10.69c-.81,3-2.23,5.73-3.31,8.59-.1.28-.46.45-.7.67a3.84,3.84,0,0,0-3.28-4.32,4.41,4.41,0,0,0-.52,0,5.85,5.85,0,0,0-4,1.11c-.41.31-.89.48-1.23-.08a.88.88,0,0,1,.21-1.22l.19-.1c.2-.12.44-.19.64-.31,2.52-1.43,5-1,7.52.07.92.4,1.12.21,1.31-.81.47-2.7-.46-5.37,0-8.07a10,10,0,0,0-.2-2.68c-.09-1-.63-1.07-1.37-.66a42.9,42.9,0,0,1-11.27,4.25,83.46,83.46,0,0,1-19.79,2.2c-2.74,0-3.14.28-3.93,2.92a7.47,7.47,0,0,1-1.22,2.54c-1.7-1-2.77-2.73-4.33-3.9-.34-.25-.25-.71-.19-1.07.89-5.16,1.81-10.28,4.22-15,6.54-12.93,22.89-16.55,34.15-9.44A2.22,2.22,0,0,0,131.92,101.46Z" transform="translate(-0.95 -34.2)"/><path id="Path_4258" data-name="Path 4258" class="cls-4" d="M96.5,130.33a7.29,7.29,0,0,0,1.22-2.54c.8-2.64,1.19-2.91,3.93-2.92a83.55,83.55,0,0,0,19.8-2.2,43.36,43.36,0,0,0,11.27-4.24c.73-.42,1.27-.32,1.36.65a10,10,0,0,1,.21,2.68c-.49,2.7.43,5.38,0,8.08-.18,1-.38,1.21-1.31.8-2.48-1.11-5-1.5-7.51-.07-.21.12-.44.19-.65.31a.87.87,0,0,0-.49,1.13.69.69,0,0,0,.1.19c.34.57.82.39,1.22.08a5.93,5.93,0,0,1,4-1.11,3.83,3.83,0,0,1,3.84,3.83,4.38,4.38,0,0,1,0,.52,23.7,23.7,0,0,0-.77,2.74c-.56,3.3-2.1,6.29-3,9.46-1,3.68-3.53,6.06-5.94,8.64a3.23,3.23,0,0,1-1.93,1.11c-1.48-2.56-2.88-3.13-5.66-2.05a12.91,12.91,0,0,1-7.53.46,20,20,0,0,1-12.16-8.12c.16-.39.28-.8.47-1.18a15.13,15.13,0,0,0,.77-12.16C97.25,133.08,96.9,131.7,96.5,130.33Zm18.88.91a9.76,9.76,0,0,0-6.7-1.63,7.62,7.62,0,0,0-4.57,1.71c-.28.25-.63.51-.34,1a.76.76,0,0,0,1,.23c.22-.09.43-.2.64-.31a10.86,10.86,0,0,1,8-.7,2,2,0,0,0,1.95-.26Zm2.76,19.65c.78,0,1.45.15,1.54-.41s-.66-.56-1.06-.64c-2.45-.56-4.9-1.13-7.29-1.92-.43-.15-.87-.28-1,.3a.77.77,0,0,0,.42,1,.59.59,0,0,0,.23.05,12.23,12.23,0,0,1,1.8.37c1.85.75,3.84.73,5.41,1.25Zm-5.36-10.3c-.21-.79-.16-1.77-1.31-1.73s-1.19,1-1.21,1.86.21,1.67,1.32,1.62,1-1.05,1.2-1.75Zm16-.91c-.08-.79,0-1.71-1.19-1.69s-1.14,1-1.15,1.84.07,1.71,1.21,1.64,1.06-1,1.13-1.79Z" transform="translate(-0.95 -34.2)"/><path id="Path_4259" data-name="Path 4259" class="cls-2" d="M182.38,114.93c5.79-.18,11.73.19,17.68.2,2.59,0,5.34,2.84,5.35,5.47q0,5.93,0,11.85a6,6,0,0,1-5.59,5.57c-6.57,0-13.14.11-19.71,0-2.81-.07-5.11,1-7.46,2.24q-5.34,2.78-10.73,5.49a6.5,6.5,0,0,1-1.61.54c-.47.09-1.1.46-1.41-.17s.3-.84.63-1.15c2-1.94,4-3.88,6.07-5.81.22-.2.43-.4.28-.72a.71.71,0,0,0-.71-.38c-.39,0-.77,0-1.15,0-3.08-.09-4.72-1.39-5.49-4.39a28,28,0,0,1-.72-7.64,27.42,27.42,0,0,1,.72-6.64c.79-3,2.34-4.19,5.42-4.22C170,115.12,176.13,114.78,182.38,114.93Zm2.73,17.81v.09H198a6.64,6.64,0,0,0,1.26-.12c.38-.08.49-.37.51-.75s-.28-.54-.63-.58l-.85-.07c-6.79-.44-13.59-.18-20.39-.17h-5.57c-.69,0-1.24.17-1.21,1s.75.56,1.18.56c4.29,0,8.57,0,12.85,0Zm2.76-9.24c-3.37,0-6.74,0-10.12,0-.63,0-1.46-.14-1.5.84s.84.83,1.45.84c4.13,0,8.26.11,12.39.1,2.9,0,5.79-.11,8.69-.19.39,0,.95.09,1-.51s-.4-.92-1-1a5.45,5.45,0,0,0-1.14-.06Zm1.45,5.52h9c.77,0,1.58-.18,1.53-1.09s-.92-.43-1.39-.46c-5.88-.47-11.77-.07-17.66-.15-.62,0-1.49-.2-1.49.83s.82.87,1.47.87Zm-17.15-9.31h0c-2.75,0-5.51,0-8.26,0-.66,0-1.28,0-1.3.85s.65.89,1.28.89l16.52,0c.68,0,1.29-.07,1.25-.94s-.61-.82-1.23-.82c-2.75,0-5.5,0-8.26,0ZM170.54,129c1.68,0,3.54,0,5.39,0,.54,0,1.19.08,1.22-.8s-.64-.89-1.26-.9c-2.28,0-4.55-.08-6.83-.09-1.81,0-3.62,0-5.42,0a1,1,0,0,0-1.08.83.67.67,0,0,0,0,.2c-.06.79.57.61,1,.64a44.11,44.11,0,0,0,7,.13Zm20.86-7.58h7.43c.52,0,1-.09,1.07-.67a1,1,0,0,0-.89-1,3.73,3.73,0,0,0-1,0l-13.71,0c-.6,0-1.22,0-1.27.75s.53,1,1.23,1h7.14Zm-23.25,3.76h4.57c.61,0,1.21,0,1.18-.84s-.62-.86-1.23-.85c-3,.06-6.08.14-9.12.19-.5,0-.79,0-.77.68s.16.85.8.83C165.11,125.17,166.63,125.2,168.15,125.2Zm-2.31,7.62c.62,0,1.24,0,1.86,0s1.27.33,1.23-.66c0-.79-.56-1-1.28-1-1.33,0-2.67.08-4,0-.71,0-.85.25-.91.88-.07.83.39.81,1,.79.72,0,1.43,0,2.15,0Z" transform="translate(-0.95 -34.2)"/><path id="Path_4260" data-name="Path 4260" class="cls-3" d="M160.39,204.75a4.2,4.2,0,0,1-.61-2.87c1.05-6.61,1.84-13.27,4.15-19.62a61.83,61.83,0,0,1,16.43-24.73c.48-.44,1-1.2,1.59-1s.3,1.09.39,1.68c.54,3.5-.25,6.91-.8,10.33a70.62,70.62,0,0,1-16,34.84,9.92,9.92,0,0,1-3.85,3.3c.19-.73.37-1.47.58-2.2,2.39-8.28,5.7-16.22,8.87-24.21a20.93,20.93,0,0,0,1.38-3.79c-.7.37-.82,1-1.06,1.45a150.7,150.7,0,0,0-7.51,18A49.27,49.27,0,0,1,160.39,204.75Zm19.77-42.87a.55.55,0,0,0-.46-.62h0c-.51-.1-.63.35-.79.67q-2.76,5.49-5.49,11c-.2.41-.57.93.07,1.23s.77-.4,1-.77c1.82-3.61,3.62-7.23,5.43-10.84.11-.22.2-.44.29-.65Z" transform="translate(-0.95 -34.2)"/><path id="Path_4261" data-name="Path 4261" class="cls-3" d="M252,223.51c.95-4,3.12-7.31,5.44-10.58a63,63,0,0,1,28.27-22.75,31.4,31.4,0,0,1,4.62-1.47c.91-.22,1.25,0,.85,1a47,47,0,0,1-4.24,7.75,67.18,67.18,0,0,1-30.28,26.42c-1.12.49-2.16,1.58-3.57.71C253.25,223.7,253.27,223,252,223.51Zm5.72-4.87.29-.28a13.77,13.77,0,0,0,4-4l.27-.29c1-.68,1.94-1.33,2.89-2a5.87,5.87,0,0,0,1.89-2.1c.13-.27.48-.58.18-.89s-.62,0-.89.18c-1.89,1.15-2.92,3-4.08,4.81l-.3.27a13.19,13.19,0,0,0-4,4l-.28.29-.29.27a5.6,5.6,0,0,0-3.42,2.75c-.17.27-.43.59-.07.87s.53,0,.77-.15a6,6,0,0,0,2.76-3.43Zm13.69-13.19-.11.14.15-.09.28-.28a1.35,1.35,0,0,0,1.29-1.09c0-.24-.18-.34-.36-.3a1.2,1.2,0,0,0-1,1.34Zm13.2-11.08a1.34,1.34,0,0,0,1.44-1.15l.09-.16-.18.08c-.79,0-1.42.21-1.4,1.18l-.08.07.05.06Zm-5.39,4.44a5.8,5.8,0,0,0-2.84,1.42c-.23.25-.55.67-.23,1s.74,0,1-.22c.63-.59,1.2-1.25,2.08-2.2Zm8.39-6.48c0-.26-.16-.46-.44-.42s-.43.35-.48.62.14.33.34.31a.58.58,0,0,0,.58-.51ZM275.36,202h-.09l0,.1Z" transform="translate(-0.95 -34.2)"/><path id="Path_4262" data-name="Path 4262" class="cls-4" d="M81.1,163.16a8.09,8.09,0,0,1,4-2,7.81,7.81,0,0,0,4.49-3.78,35.17,35.17,0,0,0,2.62-6.39l2.73-1.29c.42.5.83,1,1.27,1.5,2.22,2.46,5.27,3.63,8.09,5.14a16.81,16.81,0,0,0,7.15,2.12,2.07,2.07,0,0,1,2.08,1.6,2.53,2.53,0,0,0,1,3.72c.47.27.89.5,1,1.07a24,24,0,0,1-3.31,9.78c-1.55,2.65-3.67,3.35-6.55,2.08A38.64,38.64,0,0,1,90,163.84a12.35,12.35,0,0,0-1.64-2c-1.24-1.1-2.18-1-3.32.19A4.33,4.33,0,0,1,81.1,163.16Z" transform="translate(-0.95 -34.2)"/><path id="Path_4263" data-name="Path 4263" class="cls-3" d="M243.67,232.9a2.5,2.5,0,0,0,2.3-2.31v0c1.25.3,1.33-1.35,2.36-1.43.54.44,1,.27,1.55-.07A55.6,55.6,0,0,1,272,221.17a56.75,56.75,0,0,1,14.5,0c.68.07,1.39.12,1.62.9s-.56,1-1,1.36a59.38,59.38,0,0,1-13.19,9,48.55,48.55,0,0,1-27.05,4.54,8.62,8.62,0,0,1-3.75-1.26,2.34,2.34,0,0,1,1.23-.67l17.2-4.64c7.16-1.94,14.36-3.74,21.37-6.14.34-.12,1,0,.87-.62-.12-.45-.7-.4-1.12-.33a5.91,5.91,0,0,0-.82.24c-2.64.76-5.29,1.52-7.94,2.3-9.43,2.79-19,5.27-28.44,7.85a2.16,2.16,0,0,1-2.1-.47Z" transform="translate(-0.95 -34.2)"/><path id="Path_4264" data-name="Path 4264" class="cls-2" d="M83.14,130.56c-1.51-7.63-1.79-15.2,1.55-22.48a27.2,27.2,0,0,1,26.79-15.73,19.83,19.83,0,0,1,9.27,2.8c-4,.1-8.12-.29-12.06,1.24-7.37,2.86-12.78,7.7-15.83,15.06a64.09,64.09,0,0,0-3.21,12c-.32,1.57-.49,3-2.52,3.37a3.56,3.56,0,0,0-1.59,1.16C84.7,128.77,83.94,129.68,83.14,130.56Z" transform="translate(-0.95 -34.2)"/><path id="Path_4265" data-name="Path 4265" class="cls-3" d="M155,213.91c-3.86-3.32-6.19-7.67-8.17-12.23a50.09,50.09,0,0,1-4.22-21.93,55,55,0,0,1,1.09-9c.13-.63.07-1.46.89-1.63s1.15.57,1.52,1.08A58.36,58.36,0,0,1,155.33,189a63.93,63.93,0,0,1,2.27,18.46c0,1.75-.31,3.49-.47,5.24,0,.26-.12.46-.4.51-.55-.14-.69-.6-.85-1.05a188.76,188.76,0,0,1-7.38-25.3c-1-4.36-1.35-8.82-2.47-13.15-.12-.47-.12-1-.78-1.34a4.07,4.07,0,0,0-.06,2c.45,2.67.85,5.35,1.35,8a157.21,157.21,0,0,0,7.16,27A14.58,14.58,0,0,1,155,213.91Z" transform="translate(-0.95 -34.2)"/><path id="Path_4266" data-name="Path 4266" class="cls-3" d="M83.14,130.56c.79-.88,1.56-1.79,2.4-2.63.46-.46,1-1.07,1.58-1.16,2-.32,2.2-1.8,2.52-3.37a64.88,64.88,0,0,1,3.21-12c3.06-7.36,8.47-12.2,15.84-15.06,3.94-1.54,8-1.14,12.06-1.24,3.11.8,6.18,1.71,8.77,3.73a9,9,0,0,1,2.39,2.58,2.26,2.26,0,0,1-1.56-.58c-11.26-7.12-27.61-3.49-34.15,9.44-2.41,4.76-3.33,9.88-4.22,15-.07.36-.16.83.18,1.08,1.57,1.17,2.64,2.88,4.33,3.9.4,1.36.75,2.74,1.21,4.09a15.09,15.09,0,0,1-.78,12.16c-.19.37-.31.79-.47,1.18-.92.29-1.61.78-1.57,1.88l-2.73,1.29c-4-.08-6.75-1.87-7.78-5.1.74-.22,1,.4,1.36.76,3,3,5.33,2.55,7-1.34C94.71,140.9,93,134,89.33,131a3,3,0,0,0-4.28,0,3.1,3.1,0,0,0-.64.92c-1.76,3-1.69,6.26-.87,9.54a9.28,9.28,0,0,1,.53,3.66,8.72,8.72,0,0,1-1.58-3.27,18.92,18.92,0,0,1,0-8.6A6.75,6.75,0,0,0,83.14,130.56Z" transform="translate(-0.95 -34.2)"/><path id="Path_4267" data-name="Path 4267" class="cls-3" d="M53.89,152.61a10.85,10.85,0,0,0,1,6.77c.25.57.54,1.12.76,1.69,1,2.78.43,4.74-2.15,6.78a21.52,21.52,0,0,1-.94-4.7c-.62-3.65-1.48-7.25-2.42-10.84-.1-.4-.09-1.18-.72-1s-.3.87-.2,1.34q1.66,7.73,3.36,15.45a2,2,0,0,1-.06,1.37,6.55,6.55,0,0,0,.62,6.64A5.41,5.41,0,0,1,54.33,180c-.24,1.83.34,3.76.52,5.65.27,2.73.5,5.47.74,8.21a13.22,13.22,0,0,1-3.55-4.6c-4.62-9.4-7.54-19.2-7-29.81a58.48,58.48,0,0,1,2.69-14.54c.3-1,.59-.94,1.17-.24a31.23,31.23,0,0,1,3.18,5.56C52.59,151.07,52.71,152.24,53.89,152.61Z" transform="translate(-0.95 -34.2)"/><path id="Path_4268" data-name="Path 4268" class="cls-2" d="M94.89,149.65c0-1.1.64-1.59,1.57-1.89a20,20,0,0,0,12.17,8.12,12.87,12.87,0,0,0,7.52-.46c2.78-1.08,4.18-.51,5.66,2.05a5.15,5.15,0,0,1-4.81,2.95,26,26,0,0,1-3.52-.41,2.07,2.07,0,0,0-2.08-1.6,16.67,16.67,0,0,1-7.15-2.12c-2.82-1.51-5.87-2.68-8.09-5.14C95.72,150.66,95.31,150.15,94.89,149.65Z" transform="translate(-0.95 -34.2)"/><path id="Path_4269" data-name="Path 4269" class="cls-2" d="M155,213.91a14.39,14.39,0,0,0-1.3-4.49,157.1,157.1,0,0,1-7.16-27c-.5-2.66-.9-5.34-1.36-8a4.11,4.11,0,0,1,.07-2.06c.66.33.66.88.78,1.34,1.12,4.33,1.51,8.79,2.47,13.15a189.81,189.81,0,0,0,7.38,25.3c.16.46.3.91.85,1.06-.17,1.47-.17,1.47,1.49,1.06a5.93,5.93,0,0,1-1.05,3.56c-.43.65-.46,1,.49,1l.07.07-.36,1.37a2.58,2.58,0,0,0-1.63,1.5c-.61,2-2,3.77-2.51,5.86a.57.57,0,0,1-.57-.21,42.23,42.23,0,0,1,3.08-7.73,4.11,4.11,0,0,0-.11-4.73C155.4,214.66,155.21,214.28,155,213.91Z" transform="translate(-0.95 -34.2)"/><path id="Path_4270" data-name="Path 4270" class="cls-2" d="M243.37,233.16a2.16,2.16,0,0,0,2.1.47c9.49-2.58,19-5.06,28.44-7.85,2.65-.78,5.3-1.53,7.94-2.3a5.91,5.91,0,0,1,.82-.24c.43-.07,1-.12,1.13.34.16.63-.54.5-.88.61-7,2.4-14.21,4.21-21.37,6.15L244.35,235a2.48,2.48,0,0,0-1.24.67,1.79,1.79,0,0,0-2.21.93,4,4,0,0,1-2,1.3A17.17,17.17,0,0,1,243.37,233.16Z" transform="translate(-0.95 -34.2)"/><path id="Path_4271" data-name="Path 4271" class="cls-2" d="M160.39,204.75a49.27,49.27,0,0,0,3.56-8.83,152.37,152.37,0,0,1,7.51-18c.25-.48.36-1.08,1.06-1.45a20.2,20.2,0,0,1-1.38,3.79c-3.17,8-6.48,15.93-8.87,24.21-.21.73-.39,1.47-.58,2.2a15.79,15.79,0,0,0-2.26,6.19c0,.8-.29,1.42-1.22,1.47a10,10,0,0,1,1-4.65A14.9,14.9,0,0,0,160.39,204.75Z" transform="translate(-0.95 -34.2)"/><path id="Path_4272" data-name="Path 4272" class="cls-3" d="M245.6,230.11a5.27,5.27,0,0,1-.08-4.87,23.35,23.35,0,0,1,5.31-6.63,14.16,14.16,0,0,1-1.76,4.88C248,225.73,246.46,227.75,245.6,230.11Z" transform="translate(-0.95 -34.2)"/><path id="Path_4273" data-name="Path 4273" class="cls-3" d="M233.64,247.55l11.16,1a13.76,13.76,0,0,1,2.86.46c-4.37.12-8.73.56-13.09-.06A4.39,4.39,0,0,0,233.64,247.55Z" transform="translate(-0.95 -34.2)"/><path id="Path_4274" data-name="Path 4274" class="cls-2" d="M248.34,229.18c-1,.08-1.1,1.73-2.36,1.43,0-1.28,1.33-1.33,1.94-2.05a17.38,17.38,0,0,1,2.54-2.46C250.18,227.43,248.76,228,248.34,229.18Z" transform="translate(-0.95 -34.2)"/><path id="Path_4275" data-name="Path 4275" class="cls-2" d="M252,223.51c1.25-.56,1.23.19,1.09,1.06a.8.8,0,0,1-.27,0c-.57-.13-.8,1-1.28.5S251.89,224.07,252,223.51Z" transform="translate(-0.95 -34.2)"/><path id="Path_4276" data-name="Path 4276" class="cls-3" d="M270.4,193.23v-.63Q270.81,192.92,270.4,193.23Z" transform="translate(-0.95 -34.2)"/><path id="Path_4277" data-name="Path 4277" class="cls-1" d="M250.54,155.22A12.51,12.51,0,0,1,238,142.72c0-.1,0-.2,0-.3A12.38,12.38,0,0,1,250.38,130h.35a12.62,12.62,0,0,1,12.61,12.64v.11A12.42,12.42,0,0,1,251,155.23Z" transform="translate(-0.95 -34.2)"/><path id="Path_4278" data-name="Path 4278" class="cls-5" d="M102.36,58.73c.14.45.31.9.42,1.36.36,1.46-.33,2.36-1.83,2.26a2.83,2.83,0,0,0-2,.72c-1.56,1.15-3.27,2.08-4.84,3.2s-3.11,2-4.52,3.2a23.11,23.11,0,0,1-3.25,2.19c-.24.15-.63.51-1,0a.89.89,0,0,1,.07-1.26h0a3.8,3.8,0,0,1,.66-.54c3.17-2.19,6.29-4.44,9.52-6.53a9.62,9.62,0,0,0,4.68-8.87c-.06-3.42,0-6.85,0-10.27a6.62,6.62,0,0,1,.27-2.26c1.11,0,1.14.76,1.15,1.56l.06,13.77A1.58,1.58,0,0,0,102.36,58.73Z" transform="translate(-0.95 -34.2)"/><path id="Path_4279" data-name="Path 4279" class="cls-6" d="M102.36,58.73a1.59,1.59,0,0,1-.66-1.48q0-6.89-.06-13.77c0-.81,0-1.58-1.14-1.56,1.44-.69,2-.5,2,.86C102.45,48.1,102.62,53.42,102.36,58.73Z" transform="translate(-0.95 -34.2)"/><path id="Path_4280" data-name="Path 4280" class="cls-2" d="M9.86,155.78a4.43,4.43,0,0,1-2.33-.89c-.24-.11-.48-.4-.3-.69a.55.55,0,0,1,.77-.08c.66.51,1.27,1.07,1.9,1.61Z" transform="translate(-0.95 -34.2)"/><path id="Path_4281" data-name="Path 4281" class="cls-2" d="M26.71,168.76c-1.11-.12-1.72-.56-1.91-1.46a.3.3,0,0,1,.26-.34.14.14,0,0,1,.09,0C26.06,167.14,26.43,167.8,26.71,168.76Z" transform="translate(-0.95 -34.2)"/><path id="Path_4282" data-name="Path 4282" class="cls-2" d="M30.69,171.77c0,.39-.14.56-.49.54-.69-.06-.95-.56-1.1-1.14-.07-.27.07-.5.37-.44A1.5,1.5,0,0,1,30.69,171.77Z" transform="translate(-0.95 -34.2)"/><path id="Path_4283" data-name="Path 4283" class="cls-2" d="M43.65,185.15a1.53,1.53,0,0,1,1.57,1.33c.06.28-.16.43-.43.37a1.42,1.42,0,0,1-1.22-1.6v0Z" transform="translate(-0.95 -34.2)"/><path id="Path_4284" data-name="Path 4284" class="cls-2" d="M22.23,164.42c.57.28,1,.6,1,1.24,0,.29-.26.38-.51.3a1.33,1.33,0,0,1-1-1C21.69,164.57,22,164.49,22.23,164.42Z" transform="translate(-0.95 -34.2)"/><path id="Path_4285" data-name="Path 4285" class="cls-2" d="M10.17,156a4.44,4.44,0,0,1,1.89.88c.2.15.35.38.21.6a.34.34,0,0,1-.47.15.23.23,0,0,1-.12-.1c-.38-.64-1.41-.64-1.5-1.54Z" transform="translate(-0.95 -34.2)"/><path id="Path_4286" data-name="Path 4286" class="cls-2" d="M42.12,183.24c0,.24-.11.44-.32.36a1.42,1.42,0,0,1-1-1.1c0-.27.13-.47.42-.4C41.83,182.26,42,182.77,42.12,183.24Z" transform="translate(-0.95 -34.2)"/><path id="Path_4287" data-name="Path 4287" class="cls-2" d="M15.32,159.76a4.16,4.16,0,0,1-1.77-.85.45.45,0,0,1-.15-.61h0a.33.33,0,0,1,.47-.1.37.37,0,0,1,.12.13c.37.55,1.14.71,1.33,1.41Z" transform="translate(-0.95 -34.2)"/><path id="Path_4288" data-name="Path 4288" class="cls-2" d="M48.73,190.46c0,.29-.2.45-.48.41a1,1,0,0,1-.87-1,.35.35,0,0,1,.3-.4.43.43,0,0,1,.16,0A1.07,1.07,0,0,1,48.73,190.46Z" transform="translate(-0.95 -34.2)"/><path id="Path_4289" data-name="Path 4289" class="cls-2" d="M20.69,163.59c-.05.34-.26.35-.51.26-.42-.15-.8-.35-.79-.87,0-.31.27-.38.51-.3A1.08,1.08,0,0,1,20.69,163.59Z" transform="translate(-0.95 -34.2)"/><path id="Path_4290" data-name="Path 4290" class="cls-2" d="M37.32,178.34a1.18,1.18,0,0,1-1.35-.92c0-.17,0-.42.26-.36a1.45,1.45,0,0,1,1.11,1.26Z" transform="translate(-0.95 -34.2)"/><path id="Path_4291" data-name="Path 4291" class="cls-2" d="M38.74,179.78a.87.87,0,0,1-.85-.87l0,0a2.22,2.22,0,0,1,.86.86Z" transform="translate(-0.95 -34.2)"/><path id="Path_4292" data-name="Path 4292" class="cls-2" d="M34.18,175.2c-.28,0-.59,0-.71-.33a.15.15,0,0,1,.07-.12c.34-.05.5.18.66.43Z" transform="translate(-0.95 -34.2)"/><path id="Path_4293" data-name="Path 4293" class="cls-2" d="M15.34,159.73l.42.26-.07.11-.37-.34Z" transform="translate(-0.95 -34.2)"/><path id="Path_4294" data-name="Path 4294" class="cls-2" d="M38.77,179.75,39,180l-.15.09c0-.09-.05-.18-.07-.27Z" transform="translate(-0.95 -34.2)"/><path id="Path_4295" data-name="Path 4295" class="cls-2" d="M34.46,175.48l-.28-.28,0,0,.28.28Z" transform="translate(-0.95 -34.2)"/><path id="Path_4296" data-name="Path 4296" class="cls-2" d="M10.18,156l-.32-.25.05-.05.26.31Z" transform="translate(-0.95 -34.2)"/><path id="Path_4297" data-name="Path 4297" class="cls-2" d="M43.57,185.23l-.09-.1.17,0Z" transform="translate(-0.95 -34.2)"/><path id="Path_4298" data-name="Path 4298" class="cls-2" d="M37.34,178.32l.29.29,0,0-.29-.29Z" transform="translate(-0.95 -34.2)"/><path id="Path_4299" data-name="Path 4299" class="cls-2" d="M37.63,178.61l.28.28,0,0-.28-.28Z" transform="translate(-0.95 -34.2)"/><path id="Path_4300" data-name="Path 4300" class="cls-2" d="M35.36,176.29l.08.18-.17-.09Z" transform="translate(-0.95 -34.2)"/><path id="Path_4301" data-name="Path 4301" class="cls-2" d="M35.27,176.38l-.08-.17.17.08Z" transform="translate(-0.95 -34.2)"/><path id="Path_4302" data-name="Path 4302" class="cls-2" d="M34.48,175.46l.1.08-.12-.06Z" transform="translate(-0.95 -34.2)"/><path id="Path_4303" data-name="Path 4303" class="cls-3" d="M57.05,192.36a16,16,0,0,1-1-5c-.34-2.43-.46-4.9-.73-7.34-.15-1.29.35-1.36,1.31-.85a27.2,27.2,0,0,1,3.56,1.73,25.08,25.08,0,0,1-2,9.7A3.7,3.7,0,0,1,57.05,192.36Z" transform="translate(-0.95 -34.2)"/><path id="Path_4304" data-name="Path 4304" class="cls-2" d="M68.73,231.16c.44.32.69.68.33,1.22-4.38.61-8.45,2.24-12.52,3.84A139.73,139.73,0,0,1,34.4,242.8c-.4.08-1,.37-1.13-.13s.35-.8.84-.89C45,239.78,55,235.43,65.42,232A14.64,14.64,0,0,1,68.73,231.16Z" transform="translate(-0.95 -34.2)"/><path id="Path_4305" data-name="Path 4305" class="cls-3" d="M70.2,236.49a6.37,6.37,0,0,1,2,3.54,13,13,0,0,0,3.24,6.38,2.71,2.71,0,0,1,.41.59c.64,1.09.48,1.38-.76,1.4-2.52,0-5,.12-7.55.14-1.23,0-2.15-.43-2.24-1.84A51,51,0,0,1,70.2,236.49Z" transform="translate(-0.95 -34.2)"/><path id="Path_4306" data-name="Path 4306" class="cls-2" d="M86,183.13a131.24,131.24,0,0,1,3.87,31.63C88.94,204.16,87.42,193.65,86,183.13Z" transform="translate(-0.95 -34.2)"/><path id="Path_4307" data-name="Path 4307" class="cls-3" d="M212.61,218.29a11.88,11.88,0,0,1,6.25,1.61c2.16,1.33,2.33,3.36.44,5a4.3,4.3,0,0,1-1.3.85,14.1,14.1,0,0,1-11.75-.28c-3-1.51-3.1-4-.25-5.71A12.21,12.21,0,0,1,212.61,218.29Z" transform="translate(-0.95 -34.2)"/><path id="Path_4308" data-name="Path 4308" class="cls-1" d="M153.23,227.68c.53-2.08,1.9-3.8,2.51-5.85a2.58,2.58,0,0,1,1.63-1.5c4.11.16,7.67-1.54,11.18-3.34a33,33,0,0,0,5.26-3.1,4.43,4.43,0,0,1,1.27-.63c.67-.21,1.07,0,.79.77a6.11,6.11,0,0,1-.86,1.78c-3.38,4.07-5.74,8.84-9.09,12.91-.45.55-.74,1.22-1.4,1.58a6.89,6.89,0,0,0-2.18-.57c-2.51-.11-4.84-1.3-7.39-1.14A2.33,2.33,0,0,1,153.23,227.68Z" transform="translate(-0.95 -34.2)"/><path id="Path_4309" data-name="Path 4309" class="cls-1" d="M155.76,243.17c-.26,1.23-1.14,1.49-2.24,1.49q-7.47,0-14.94,0c-.09-.56-.05-1.06.69-.73a3,3,0,0,0,2.47-.16,2.31,2.31,0,0,1,.82-.21Z" transform="translate(-0.95 -34.2)"/><path id="Path_4310" data-name="Path 4310" class="cls-1" d="M135.06,244.67l-5.55-.14a3.93,3.93,0,0,0-.59-1.59c0-.47,0-.93-.08-1.39.43-.06.84-.15,1.12.33.93,1.62,2.49,1.87,4.15,1.88C134.74,243.76,135.29,243.79,135.06,244.67Z" transform="translate(-0.95 -34.2)"/><path id="Path_4311" data-name="Path 4311" class="cls-5" d="M53.52,91A1.25,1.25,0,0,1,53,92c-1.55.87-1.36,2.33-1.35,3.74A2.45,2.45,0,0,0,53,98.32a2.73,2.73,0,0,0,3.34-.47c1.11-1,2.05-1.94,1.81-3.58a3,3,0,0,1,.39-1.65c1.66,1.25,2.16,4.81-.08,6.44-1.15.82-1.92,2.28-3.66,2.21-.43,0-.69.64-.85,1.07A54.94,54.94,0,0,1,48.89,113a2.28,2.28,0,0,0-.12,2.4c1.26,2.74.77,4.92-1.38,6.61a5.28,5.28,0,0,1-6.73-.23,5.16,5.16,0,0,1-2-4.8,5.63,5.63,0,0,1,4.28-4.6,2.36,2.36,0,0,0,1.68-1.49,80.26,80.26,0,0,1,5-10.21,2.8,2.8,0,0,0-.13-3C48,94.9,50.27,91.13,53.52,91ZM46.23,117.4c-.29-.68.49-1.69-.54-2.13a3.34,3.34,0,0,0-2.75,0c-1.26.57-1.47,2-.64,3.77s2.08,2,3.52.69c.73-.69.18-1.54.41-2.3Z" transform="translate(-0.95 -34.2)"/><path id="Path_4312" data-name="Path 4312" class="cls-4" d="M128.92,242.94a3.79,3.79,0,0,1,.59,1.59,40.39,40.39,0,0,1-6.69.1c.72-.61.72-.6,2.55-.55C126.68,244.12,128.06,244.31,128.92,242.94Z" transform="translate(-0.95 -34.2)"/><path id="Path_4313" data-name="Path 4313" class="cls-2" d="M171.13,208.35a3.79,3.79,0,0,1-2.11,2c-.2.08-.45.26-.64,0s0-.46.09-.66a2.74,2.74,0,0,1,2.62-1.42Z" transform="translate(-0.95 -34.2)"/><path id="Path_4314" data-name="Path 4314" class="cls-2" d="M187.66,194.33A2.2,2.2,0,0,1,186,196c-.28.08-.44-.05-.44-.37,0-.54,1.18-1.79,1.7-1.78C187.51,193.82,187.66,194,187.66,194.33Z" transform="translate(-0.95 -34.2)"/><path id="Path_4315" data-name="Path 4315" class="cls-2" d="M177.92,202.27c.11-1.05.82-1.48,1.76-1.67l0,.05a1.49,1.49,0,0,1-1.19,1.74,1.47,1.47,0,0,1-.47,0A.93.93,0,0,1,177.92,202.27Z" transform="translate(-0.95 -34.2)"/><path id="Path_4316" data-name="Path 4316" class="cls-2" d="M166.44,211.84c-.09.72-.26,1.21-.94,1.29a.29.29,0,0,1-.34-.26.11.11,0,0,1,0-.08C165.23,212.16,165.7,212,166.44,211.84Z" transform="translate(-0.95 -34.2)"/><path id="Path_4317" data-name="Path 4317" class="cls-2" d="M160.48,217.14a1.08,1.08,0,0,1-.83.84c-.28.07-.48,0-.42-.35a1,1,0,0,1,1-.88C160.44,216.73,160.46,216.94,160.48,217.14Z" transform="translate(-0.95 -34.2)"/><path id="Path_4318" data-name="Path 4318" class="cls-2" d="M182.23,198.6a1,1,0,0,1,.88-1.15h.28l.06.06a1,1,0,0,1-.8,1.15,1.09,1.09,0,0,1-.36,0Z" transform="translate(-0.95 -34.2)"/><path id="Path_4319" data-name="Path 4319" class="cls-2" d="M175.56,203.91c.21,0,.38.07.37.3a.86.86,0,0,1-.63.82c-.3.12-.45-.06-.43-.33A.93.93,0,0,1,175.56,203.91Z" transform="translate(-0.95 -34.2)"/><path id="Path_4320" data-name="Path 4320" class="cls-2" d="M178.06,202.41a.82.82,0,0,1-.91.54l-.09-.08a1.32,1.32,0,0,1,.85-.59Z" transform="translate(-0.95 -34.2)"/><path id="Path_4321" data-name="Path 4321" class="cls-2" d="M157.65,218.88l.09-.07a.15.15,0,0,1,.06.05l-.07.09Z" transform="translate(-0.95 -34.2)"/><path id="Path_4322" data-name="Path 4322" class="cls-2" d="M182,198.94l-.16.1.1-.16Z" transform="translate(-0.95 -34.2)"/><path id="Path_4323" data-name="Path 4323" class="cls-2" d="M179.68,200.6l.07-.09.06.06-.09.08Z" transform="translate(-0.95 -34.2)"/><path id="Path_4324" data-name="Path 4324" class="cls-2" d="M182.29,198.66l-.28.28-.06-.06.29-.28Z" transform="translate(-0.95 -34.2)"/><path id="Path_4325" data-name="Path 4325" class="cls-2" d="M183.39,197.45a.38.38,0,0,1,.09-.09l.05.06a.34.34,0,0,1-.08.09Z" transform="translate(-0.95 -34.2)"/><path id="Path_4326" data-name="Path 4326" class="cls-2" d="M176.81,203.18l.26-.32.08.09-.31.26Z" transform="translate(-0.95 -34.2)"/><path id="Path_4327" data-name="Path 4327" class="cls-2" d="M176.53,203.47a3.83,3.83,0,0,1,.28-.29l0,0-.29.28Z" transform="translate(-0.95 -34.2)"/><path id="Path_4328" data-name="Path 4328" class="cls-2" d="M171.4,208.06l-.27.29,0,0,.31-.25Z" transform="translate(-0.95 -34.2)"/><path id="Path_4329" data-name="Path 4329" class="cls-2" d="M176.55,203.49l-.07.1.05-.12Z" transform="translate(-0.95 -34.2)"/><path id="Path_4330" data-name="Path 4330" class="cls-5" d="M187.25,74.54a18.08,18.08,0,0,1-2.57-3.4,7.23,7.23,0,0,1,.62-7.93,7.08,7.08,0,0,1,7.45-2.82,7.19,7.19,0,0,1,5.89,5.36c.69,2.45-.4,4.56-1.55,6.61s-1.22,2.2,1,2.75a5.74,5.74,0,0,1,4.22,3.76,55.47,55.47,0,0,1,3,9.93,2.78,2.78,0,0,1-1.53,3.09,23.08,23.08,0,0,1-14.58,3.43,21.7,21.7,0,0,1-10.31-3.38c-1.7-1.1-1.89-1.78-1.38-3.71s.93-3.87,1.39-5.81C180,78.08,182.22,75,187.25,74.54Z" transform="translate(-0.95 -34.2)"/><path id="Path_4331" data-name="Path 4331" class="cls-2" d="M115.38,131.24a2,2,0,0,1-1.95.26,10.86,10.86,0,0,0-8,.7l-.64.31a.75.75,0,0,1-1-.23c-.3-.45.06-.72.33-1a7.56,7.56,0,0,1,4.57-1.71A9.71,9.71,0,0,1,115.38,131.24Z" transform="translate(-0.95 -34.2)"/><path id="Path_4332" data-name="Path 4332" class="cls-5" d="M118.15,150.89c-1.58-.52-3.57-.5-5.42-1.25a12.23,12.23,0,0,0-1.8-.37.76.76,0,0,1-.7-.83.68.68,0,0,1,0-.23c.18-.57.62-.44,1.06-.3a73,73,0,0,0,7.29,1.92c.39.09,1.16,0,1.05.65S118.92,150.89,118.15,150.89Z" transform="translate(-0.95 -34.2)"/><path id="Path_4333" data-name="Path 4333" class="cls-2" d="M112.78,140.58c-.21.71,0,1.72-1.2,1.76s-1.33-.75-1.31-1.62,0-1.83,1.2-1.86S112.58,139.8,112.78,140.58Z" transform="translate(-0.95 -34.2)"/><path id="Path_4334" data-name="Path 4334" class="cls-2" d="M128.83,139.68c-.08.8,0,1.73-1.13,1.79s-1.24-.8-1.22-1.64-.13-1.83,1.15-1.84S128.74,138.89,128.83,139.68Z" transform="translate(-0.95 -34.2)"/><path id="Path_4335" data-name="Path 4335" class="cls-5" d="M185.11,132.74c-4.28,0-8.56,0-12.85,0-.43,0-1.13.35-1.17-.56s.51-1,1.2-1h5.57c6.8,0,13.6-.28,20.4.17a8.12,8.12,0,0,1,.85.07c.34,0,.65.1.62.58s-.13.67-.51.74a6.65,6.65,0,0,1-1.26.13H185.11Z" transform="translate(-0.95 -34.2)"/><path id="Path_4336" data-name="Path 4336" class="cls-5" d="M187.88,123.5h9.83a7.26,7.26,0,0,1,1.14.06c.55.11,1,.39,1,1s-.63.5-1,.51c-2.9.08-5.79.19-8.69.19-4.13,0-8.26-.05-12.39-.11-.61,0-1.5.25-1.45-.83s.87-.84,1.5-.84C181.13,123.49,184.5,123.5,187.88,123.5Z" transform="translate(-0.95 -34.2)"/><path id="Path_4337" data-name="Path 4337" class="cls-5" d="M189.32,129h-8.55c-.66,0-1.48.12-1.47-.87s.86-.84,1.48-.83c5.89.08,11.78-.32,17.67.14.47,0,1.34-.4,1.39.47s-.77,1.09-1.53,1.09Z" transform="translate(-0.95 -34.2)"/><path id="Path_4338" data-name="Path 4338" class="cls-5" d="M172.17,119.71c2.76,0,5.51,0,8.26,0,.62,0,1.19,0,1.23.81s-.57.95-1.25.95q-8.26,0-16.52,0c-.64,0-1.31,0-1.28-.89s.64-.86,1.3-.85h8.26Z" transform="translate(-0.95 -34.2)"/><path id="Path_4339" data-name="Path 4339" class="cls-5" d="M170.54,129a43,43,0,0,1-7-.14c-.42,0-1.05.15-1-.64a1,1,0,0,1,.89-1h.19c1.81,0,3.61,0,5.42,0,2.28,0,4.55,0,6.83.09.62,0,1.29-.06,1.26.9s-.68.79-1.22.8C174.08,129,172.23,129,170.54,129Z" transform="translate(-0.95 -34.2)"/><path id="Path_4340" data-name="Path 4340" class="cls-5" d="M191.41,121.44c-2.38,0-4.76,0-7.14,0-.71,0-1.29-.11-1.24-1s.68-.76,1.28-.75l13.7,0a3.71,3.71,0,0,1,1,0,1,1,0,0,1,.89,1c0,.58-.55.67-1.07.67Z" transform="translate(-0.95 -34.2)"/><path id="Path_4341" data-name="Path 4341" class="cls-5" d="M168.16,125.2c-1.53,0-3,0-4.57,0-.65,0-.78-.23-.8-.83s.26-.68.76-.69c3,0,6.09-.12,9.13-.19.61,0,1.2.08,1.23.85s-.58.85-1.19.85C171.2,125.19,169.68,125.2,168.16,125.2Z" transform="translate(-0.95 -34.2)"/><path id="Path_4342" data-name="Path 4342" class="cls-5" d="M165.85,132.82c-.72,0-1.43,0-2.15,0-.57,0-1,0-.95-.79.06-.63.19-.91.91-.88,1.33.05,2.66,0,4,0,.71,0,1.24.23,1.27,1,0,1-.73.64-1.23.67S166.47,132.82,165.85,132.82Z" transform="translate(-0.95 -34.2)"/><path id="Path_4343" data-name="Path 4343" class="cls-2" d="M180.16,161.88c-.09.21-.18.43-.29.64-1.81,3.62-3.61,7.24-5.43,10.85-.19.37-.29,1.07-1,.76s-.27-.81-.07-1.22q2.73-5.5,5.49-11c.16-.32.27-.77.79-.67a.54.54,0,0,1,.47.61Z" transform="translate(-0.95 -34.2)"/><path id="Path_4344" data-name="Path 4344" class="cls-2" d="M262.29,214.05c1.17-1.77,2.19-3.66,4.09-4.81.27-.16.57-.48.88-.18s0,.62-.18.89a5.86,5.86,0,0,1-1.89,2.1c-.95.69-1.92,1.34-2.89,2Z" transform="translate(-0.95 -34.2)"/><path id="Path_4345" data-name="Path 4345" class="cls-2" d="M257.46,218.93a6,6,0,0,1-2.76,3.43c-.23.15-.51.35-.77.15s-.09-.6.08-.87a5.54,5.54,0,0,1,3.42-2.75Z" transform="translate(-0.95 -34.2)"/><path id="Path_4346" data-name="Path 4346" class="cls-2" d="M258,218.33a13,13,0,0,1,4-4l0,0a13.77,13.77,0,0,1-4,4Z" transform="translate(-0.95 -34.2)"/><path id="Path_4347" data-name="Path 4347" class="cls-2" d="M279.24,198.81c-.88.94-1.45,1.61-2.09,2.2-.24.24-.65.57-1,.22s0-.75.23-1A5.8,5.8,0,0,1,279.24,198.81Z" transform="translate(-0.95 -34.2)"/><path id="Path_4348" data-name="Path 4348" class="cls-2" d="M271.71,205.17a1.21,1.21,0,0,1,1-1.34c.18,0,.4.06.36.3a1.35,1.35,0,0,1-1.29,1.09Z" transform="translate(-0.95 -34.2)"/><path id="Path_4349" data-name="Path 4349" class="cls-2" d="M286.07,193.22a1.34,1.34,0,0,1-1.44,1.15l-.05-.05c0-1,.61-1.18,1.4-1.18Z" transform="translate(-0.95 -34.2)"/><path id="Path_4350" data-name="Path 4350" class="cls-2" d="M287.63,192.33a.58.58,0,0,1-.58.51c-.2,0-.39-.07-.34-.31s.14-.57.48-.62S287.59,192.07,287.63,192.33Z" transform="translate(-0.95 -34.2)"/><path id="Path_4351" data-name="Path 4351" class="cls-2" d="M275.36,202l-.05.09,0-.1Z" transform="translate(-0.95 -34.2)"/><path id="Path_4352" data-name="Path 4352" class="cls-2" d="M284.62,194.37l-.08.08-.05,0,.09-.08Z" transform="translate(-0.95 -34.2)"/><path id="Path_4353" data-name="Path 4353" class="cls-2" d="M271.47,205.5l-.14.09.1-.14Z" transform="translate(-0.95 -34.2)"/><path id="Path_4354" data-name="Path 4354" class="cls-2" d="M286,193.14l.18-.08-.09.16Z" transform="translate(-0.95 -34.2)"/><path id="Path_4355" data-name="Path 4355" class="cls-2" d="M262,214.31l.29-.27,0,0-.27.29Z" transform="translate(-0.95 -34.2)"/><path id="Path_4356" data-name="Path 4356" class="cls-2" d="M257.71,218.62l.28-.29,0,0-.29.28Z" transform="translate(-0.95 -34.2)"/><path id="Path_4357" data-name="Path 4357" class="cls-2" d="M257.74,218.64l-.28.29,0,0,.3-.27Z" transform="translate(-0.95 -34.2)"/><path id="Path_4358" data-name="Path 4358" class="cls-2" d="M271.75,205.22l-.28.28,0-.05.28-.28Z" transform="translate(-0.95 -34.2)"/><path id="Path_4359" data-name="Path 4359" class="cls-2" d="M46.23,117.41c-.23.77.32,1.62-.41,2.3-1.44,1.34-2.69,1.11-3.51-.69s-.63-3.2.63-3.77a3.36,3.36,0,0,1,2.76,0C46.71,115.71,45.94,116.72,46.23,117.41Z" transform="translate(-0.95 -34.2)"/></g></g></svg>