<svg id="Layer_1" data-name="Layer 1" xmlns="http://www.w3.org/2000/svg" viewBox="0 0 300 300"><defs><style>.cls-1{fill:#0a1512;}.cls-2{fill:#1b755b;}.cls-3{fill:#78c9b1;}.cls-4{fill:#26b78d;}.cls-5{fill:#eeae93;}</style></defs><g id="Group_2851" data-name="Group 2851"><path id="Path_4861" data-name="Path 4861" class="cls-1" d="M79.13,157H75.66a9.56,9.56,0,0,0-5.08-4.77,35.47,35.47,0,0,0-5.06-1.51L64.35,149c-.14-.51-.26-1-.42-1.52-.61-2-1.39-3.92-1.11-6l5.51-1.14c4.41.13,8.85-.14,13.21.87.26,1.93.58,2.24,2.47,2.16a17.15,17.15,0,0,0,3.84-.59l14.57-1.92c8.65-1.17,17.25-2.66,26-3a71.51,71.51,0,0,1,16,1c1.39.26,2.76.55,4.06-.29a2,2,0,0,1,.73-.14c4.91-.81,9.89-1.16,14.76-2.24a25.07,25.07,0,0,0,7.89-2.68c2.63-.17,5.25-.45,7.87-.48,6.75-.1,13.48.46,20.2,1a7.81,7.81,0,0,1,7.21,9.63c-.14.73-.28,1.45-.37,2.18-.06.45-.09,1,.38,1.22s.82-.27,1.19-.49c.54-.31.42-1.06.88-1.44a14.54,14.54,0,0,0,5-.82c3.25-1,6.47-1.86,9.9-.68,1.29.45,2.35-.55,2.47-2,.06-.82,0-1.65,0-2.47a3.63,3.63,0,0,1,2-3.44,2.29,2.29,0,0,0,1.74.15,16.36,16.36,0,0,1,4.79,0c2.91.26,5.82.61,8.73.81a41.69,41.69,0,0,0,11.21-.47c-.32,2.56-.64,5.12-1,7.67a1.64,1.64,0,0,1-1,1.29,37,37,0,0,0-9.58,6.15c-3.21-.06-6.4.44-9.6.5-3.51.07-7,0-10.51.24-3,.2-5.92-.35-8.88-.5-2.29-.12-4.6.09-6.88-.44-.8-.19-1.33.17-1.65,1.06a30.08,30.08,0,0,1-4.69,8.64c-2.13.48-4,.66-5.86-1.19-4.41-4.46-9.15-8.55-14.84-11.38A4.68,4.68,0,0,0,176,148a10.32,10.32,0,0,1-4.54,1,55.42,55.42,0,0,1-7.6-.86,57.39,57.39,0,0,0-6.55-.37,1.19,1.19,0,0,0-1.22.67.81.81,0,0,0,.39,1.05c1.62,1.19,3.07,2.59,4.77,3.7a184.71,184.71,0,0,0,21,11.85c.38.18.91.21,1,.76a21.11,21.11,0,0,1-5.83.36c-2.14-.06-4.28.2-6.42.13-4-.13-7.91-.4-11.86-.59-1,0-1.95,0-3.11,0a43.22,43.22,0,0,0,2.47,4.07,54.08,54.08,0,0,1,3.57,6.06,56.77,56.77,0,0,1,3.63,7.28c1.08,2.94,2.14,6,1.62,9.24a4.4,4.4,0,0,1-4.09,3.79,26.35,26.35,0,0,1-9.32-.65c-2.89-.63-5.75-1.39-8.62-2.09-.15-.64-.28-1.29-.46-1.92-1.17-4.14-4.12-6.7-7.8-8.55a6.84,6.84,0,0,1-3.72-4.64,24,24,0,0,1-.28-3.06c-.16-1.3.23-2.73-.78-3.86-1.35-1.64-3.08-3-4.37-4.63a6.83,6.83,0,0,0-5.11-2.77c-6.26-.71-12.49-1.7-18.73-2.59-2.33-.33-4.51-1.24-6.81-1.74a57,57,0,0,0-13.16-1,23.89,23.89,0,0,0-5.48-7.4C78.82,153.45,79,155.24,79.13,157Z"/><path id="Path_4862" data-name="Path 4862" class="cls-2" d="M209.22,145.06c-.46.39-.35,1.14-.89,1.45-.36.21-.68.73-1.18.48s-.44-.76-.38-1.21c.09-.74.23-1.46.37-2.19a7.81,7.81,0,0,0-7.21-9.63c-6.72-.52-13.45-1.06-20.2-1-2.63,0-5.25.31-7.87.48-.29-.63-.87-.55-1.39-.54-2.88.08-5.76,0-8.64.2-3.78.28-7.58.22-11.36.32a6.31,6.31,0,0,0-1.84.15.78.78,0,0,1-1-.36.87.87,0,0,1-.08-.26c-.24-.84-.84-.93-1.33-.21-.24.34-.35.68-.88.68-3.21,0-6.4.31-9.61.46-4.15.18-8.31,0-12.48.21-3.76.24-7.55.32-11.33.52-5,.26-10,.4-14.93.52-3.25.07-6.49.33-9.73.45-5.55.22-11.08.71-16.64.85-2.58.07-5.31-.2-7.67,1.34-5.2-.86-10.38,0-15.56.22-6.52.29-13,.73-19.53,1.12L9,140.29c-1,.06-2,.12-3,.13S2.58,138.35,2.13,137a3,3,0,0,1,1.57-3.56,26.68,26.68,0,0,1,10.39-3.71,101.54,101.54,0,0,1,17.43-.63c8.68.31,17.34-.08,26-.31,7.22-.2,14.45-.4,21.67-.54q26.39-.53,52.76-1c4.59-.09,9.19-.43,13.75-.13,10,.66,20.09,0,30.13.74,6.25.48,12.53.54,18.76,1.35A60.48,60.48,0,0,1,205,131.35a3,3,0,0,0,1.43.31l2,1.78a9.9,9.9,0,0,1,1.49,6.25C209.75,141.49,209.47,143.27,209.22,145.06Z"/><path id="Path_4863" data-name="Path 4863" class="cls-3" d="M65.52,150.75a35.59,35.59,0,0,1,5.07,1.51A9.63,9.63,0,0,1,75.67,157a2.08,2.08,0,0,1-2,.92,107.81,107.81,0,0,0-11.37,0c-8.35.38-16.73.43-25,2A36.3,36.3,0,0,0,20,167.88a7.47,7.47,0,0,1-5.77,1.69c0-1-.05-2,0-3,.31-3.61,1.4-6.85,4.57-9a15.59,15.59,0,0,1,4.29-1.86c1.34-.41,2.57-1,2.71-2.66A15.24,15.24,0,0,1,28,146.66c.81-1.43,1.6-2.87,2.41-4.3a7.33,7.33,0,0,1,5.19,2.27c2.62,2.6,5.21,2.72,8.47,1.19,5.3-2.5,11.06-3.69,16.7-5.19a1.7,1.7,0,0,1,2.11.82c-.28,2.14.5,4.08,1.11,6.05.16.5.28,1,.42,1.52a19.32,19.32,0,0,0-4,.52c-3,.47-5.88,1-8.83,1.46-.57.1-.69.37-.61.83s.48.27.76.21c2.95-.67,6-.39,8.95-.59C62.24,151.35,64,151.6,65.52,150.75Z"/><path id="Path_4864" data-name="Path 4864" class="cls-4" d="M132.3,171.42c1,1.13.62,2.56.78,3.87a24,24,0,0,0,.28,3.05,6.82,6.82,0,0,0,3.72,4.64c3.68,1.85,6.62,4.41,7.8,8.56.18.63.3,1.27.46,1.91-.91,1.55-1,1.59-2.75,1-6.62-2.25-13.26-4.42-19.84-6.77-3.52-1.26-6.89-2.92-10.54-3.82a45.2,45.2,0,0,0-13.94-1.46c-.34,0-.57,0-.58-.37L98,171.72c0-1.35.19-1.48,1.55-1.22a2.58,2.58,0,0,0,1,0c1.16-.24,2.33-.44,3.49-.66.51.09,1.07,0,1.35.64.7,1.55,2,1.83,3.52,1.58a93.25,93.25,0,0,1,10.68-1,81,81,0,0,1,12,.47A1.31,1.31,0,0,0,132.3,171.42Z"/><path id="Path_4865" data-name="Path 4865" class="cls-3" d="M183.3,165.85c-.14-.54-.66-.57-1.05-.76a184.58,184.58,0,0,1-21-11.85c-1.7-1.11-3.15-2.51-4.78-3.7a.8.8,0,0,1-.38-1,1.17,1.17,0,0,1,1.22-.66,54.9,54.9,0,0,1,6.54.36,57.23,57.23,0,0,0,7.6.87,10.24,10.24,0,0,0,4.55-1,4.66,4.66,0,0,1,4.49.16c5.69,2.82,10.42,6.92,14.84,11.37,1.83,1.86,3.73,1.68,5.86,1.19,2.29.62,3.6,2.41,5,4.14,1,1.31,2.17,2.56,3.27,3.82.33.39.72.76,0,1.16-6.54.34-13.09.17-19.63.25-.4-.21-.9-.38-1.05-.8C187.84,166.75,185.5,166.42,183.3,165.85Z"/><path id="Path_4866" data-name="Path 4866" class="cls-3" d="M243.44,151.25a36.85,36.85,0,0,1,9.57-6.16,1.64,1.64,0,0,0,1.05-1.29c.35-2.55.67-5.11,1-7.67a1.45,1.45,0,0,1,1.41-.77c3.62-.13,7.24-.29,10.86-.43s7.4-.31,11.1-.44a58.18,58.18,0,0,1,10.54,1l6,.9c.94.14,1.69.62,1.39,1.61a50.87,50.87,0,0,1-2.32,6.76.94.94,0,0,1-.58.6,13.9,13.9,0,0,0-3.65-1.28l-.25-.26c-.35-.73-.35-1.3.62-1.51a.68.68,0,0,0,.59-.76.43.43,0,0,0,0,0c-.07-.38-.4-.4-.68-.35-1,.18-.74,1.13-1,1.75s-.07.84.52.92l.24.25c.23,1.51,1.39,1.75,2.6,1.92.32,1.53-.1,2.21-1.87,3.14a1.53,1.53,0,0,1-2.06-.54c-4-4.94-9-5.5-14.6-3.35-7.55,2.92-15.37,4.93-23.14,7.1-2.05.58-4.18.91-6.27,1.35a1.73,1.73,0,0,1-1.61-.41c-.31-.32.16-.74.28-1.12A7.32,7.32,0,0,1,243.44,151.25Z"/><path id="Path_4867" data-name="Path 4867" class="cls-4" d="M62.92,137.8c2.36-1.54,5.08-1.27,7.67-1.34,5.55-.14,11.08-.62,16.63-.84,3.24-.13,6.48-.39,9.73-.46,5-.12,10-.26,14.93-.52,3.78-.2,7.57-.28,11.34-.52,4.16-.26,8.32,0,12.48-.21,3.2-.14,6.39-.47,9.6-.46.54,0,.64-.34.88-.68.5-.72,1.1-.63,1.34.21a.76.76,0,0,0,.85.69.72.72,0,0,0,.25-.07,6.31,6.31,0,0,1,1.84-.15c3.79-.09,7.59,0,11.36-.32,2.89-.21,5.76-.12,8.64-.2.53,0,1.11-.09,1.39.54a25.09,25.09,0,0,1-7.89,2.69c-4.87,1.07-9.85,1.42-14.76,2.24a2,2,0,0,0-.72.14c-1.32.84-2.68.54-4.07.29a70.88,70.88,0,0,0-16-1c-8.74.38-17.35,1.87-26,3q-7.27,1-14.56,1.92c-.07-.33-.35-.45-.61-.54a17.93,17.93,0,0,0-5.71-1c-4.35-1-8.8-.75-13.21-.87A37.36,37.36,0,0,0,62.92,137.8Z"/><path id="Path_4868" data-name="Path 4868" class="cls-3" d="M104,169.82c-1.17.22-2.33.42-3.5.66a2.39,2.39,0,0,1-1,0c-1.36-.26-1.51-.13-1.55,1.22-.08,3.44-.18,6.88-.27,10.32-4.29-.06-8.56.4-12.84.58a60.1,60.1,0,0,1-10.73-.39,2.43,2.43,0,0,1-1.68-4,20.52,20.52,0,0,1,7.95-6.74c3.06-1.41,6.53-1.24,9.85-.57a3.94,3.94,0,0,0,3.61-1,12.31,12.31,0,0,1,5.49-2.69C101.43,166.73,102.85,167.63,104,169.82Z"/><path id="Path_4869" data-name="Path 4869" class="cls-1" d="M208.48,133.44l-2-1.78c-.08-2.43-.65-4.8-.73-7.23a7,7,0,0,1,3-6.29,35.14,35.14,0,0,1,3.88-2.39,1.3,1.3,0,0,1,.57-.2c2.47.12,5-.41,7.38.77s5.24,1.7,7.65,3c.53.29,1.45.4,1.33,1.2s-.5,1.76-1.67,1.8a2.23,2.23,0,0,0-.71.21c-1.89-.94-4-1.07-6-1.66a2.52,2.52,0,0,0-2.81.72c-.79.93-.49,1.92-.06,2.89a12.37,12.37,0,0,1,1.19,2.68c-.72.26-.86.91-1,1.54a2.84,2.84,0,0,0-1.78,1.43c-.34.57-.67,1.14-1.06,1.67s-.7.62-.87-.16a4.45,4.45,0,0,0-.24-.7,2,2,0,0,0-2.29-1.46,1.93,1.93,0,0,0-1.69,2.1C210.34,133.4,210.31,133.4,208.48,133.44Z"/><path id="Path_4870" data-name="Path 4870" class="cls-5" d="M208.48,133.45c1.83,0,1.86,0,2-1.84a1.92,1.92,0,0,1,1.69-2.09,2,2,0,0,1,2.29,1.46,4.13,4.13,0,0,1,.24.7c.17.78.53.62.87.15s.72-1.1,1.06-1.66a2.85,2.85,0,0,1,1.78-1.44c.55,1,1.06,2,1.66,3a4.39,4.39,0,0,0,3.75,2.21c1.43,0,2.87,0,4.3-.06.9.37.33,1.16.51,1.74a3.65,3.65,0,0,0-2,3.43c0,.83,0,1.66,0,2.48-.11,1.48-1.17,2.47-2.47,2-3.43-1.18-6.64-.32-9.9.68a14.72,14.72,0,0,1-5,.82c.25-1.79.53-3.58.75-5.37A9.9,9.9,0,0,0,208.48,133.45Z"/><path id="Path_4871" data-name="Path 4871" class="cls-1" d="M30.35,142.36c-.81,1.44-1.6,2.87-2.41,4.3a15.34,15.34,0,0,0-2.14,6.39c-.13,1.65-1.37,2.25-2.71,2.67a15,15,0,0,0-4.29,1.86c-3.17,2.17-4.26,5.41-4.57,9-.08,1,0,2,0,3l-.61.05c-1.06,0-1.65-.25-1.69-1.57a12.7,12.7,0,0,1,6.91-12.34,9.1,9.1,0,0,0,5-6c.71-2.79,2.66-4.9,4.69-6.86A1.5,1.5,0,0,1,30.35,142.36Z"/><path id="Path_4872" data-name="Path 4872" class="cls-4" d="M189.86,170.11c6.54-.08,13.09.09,19.63-.25a4.27,4.27,0,0,1-2.38,2.19c-1.54.7-3,1.49-4.63,2a8.93,8.93,0,0,0-3.06,1.8c-1.47,1.33-2.68,1.33-4.14,0A65.33,65.33,0,0,1,189.86,170.11Z"/><path id="Path_4873" data-name="Path 4873" class="cls-5" d="M219.41,127.19a12.29,12.29,0,0,0-1.19-2.67c-.43-1-.73-2,.06-2.9a2.5,2.5,0,0,1,2.81-.71c2,.59,4.12.71,6,1.65a33.82,33.82,0,0,1,.75,5.3A54.17,54.17,0,0,1,219.41,127.19Z"/><path id="Path_4874" data-name="Path 4874" class="cls-4" d="M219.41,127.19a54.17,54.17,0,0,0,8.44.67c.85.94.4,1.92.09,2.88s-.64,2.13.14,3.15c-1.43,0-2.87.09-4.3.05a4.33,4.33,0,0,1-3.75-2.2c-.6-1-1.11-2-1.67-3C218.55,128.1,218.69,127.45,219.41,127.19Zm6.39,3.41a.63.63,0,0,0-.6-.65h-.14c-.42,0-1-.09-1.06.46a1,1,0,0,0,.82.91A1,1,0,0,0,225.8,130.6Z"/><path id="Path_4875" data-name="Path 4875" class="cls-2" d="M79.13,157c-.15-1.78-.3-3.57-.49-5.75a23.89,23.89,0,0,1,5.48,7.4A13.55,13.55,0,0,1,79.13,157Z"/><path id="Path_4876" data-name="Path 4876" class="cls-5" d="M292.38,146c-1.21-.17-2.37-.41-2.6-1.91h0a14.23,14.23,0,0,1,3.66,1.29Z"/><path id="Path_4877" data-name="Path 4877" class="cls-4" d="M65.52,150.75c-1.55.85-3.28.59-4.91.7-3,.21-6-.07-9,.59-.28.06-.67.37-.76-.2s0-.75.6-.83c3-.46,5.89-1,8.84-1.46a18.67,18.67,0,0,1,4-.52Z"/><path id="Path_4878" data-name="Path 4878" class="cls-2" d="M81.54,141.19a18.16,18.16,0,0,1,5.7,1c.27.09.54.21.61.54a17.15,17.15,0,0,1-3.84.59C82.12,143.43,81.8,143.12,81.54,141.19Z"/><path id="Path_4879" data-name="Path 4879" class="cls-5" d="M289.53,143.84c-.59-.08-.78-.36-.51-.93s0-1.56,1-1.74c.28-.06.61,0,.67.34a.68.68,0,0,1-.51.81h-.06c-1,.21-1,.77-.63,1.51Z"/><path id="Path_4880" data-name="Path 4880" class="cls-5" d="M289.78,144.09l-.25-.25h0l.25.26Z"/><path id="Path_4881" data-name="Path 4881" class="cls-1" d="M225.79,130.6a1,1,0,0,1-1,.74,1,1,0,0,1-.82-.91c0-.55.64-.45,1.06-.46a.61.61,0,0,1,.73.49A.33.33,0,0,1,225.79,130.6Z"/></g></svg>