<svg id="Layer_1" data-name="Layer 1" xmlns="http://www.w3.org/2000/svg" viewBox="0 0 300 300"><defs><style>.cls-1{fill:#212d2a;}.cls-2{fill:#fff;}.cls-3{fill:#f5f5f5;}.cls-4{fill:#1b755b;}</style></defs><g id="Group_2849" data-name="Group 2849"><path id="Path_4378" data-name="Path 4378" class="cls-1" d="M95.66,171c-14-12.76-23.44-27.26-27.47-45.33-1.75-7.8.56-9.14,7.54-8.56A97.85,97.85,0,0,0,105,113.9a172.2,172.2,0,0,1,76.56,0c10.71,2.44,21.7,4.53,32.66,3.16,8.64-1.09,8.49,2.88,7.13,8.94a79.84,79.84,0,0,1-27.73,45c27.05,16,44.76,38.17,51.82,68.22,4,17.19,2.47,34.68,2.85,52.06.16,6.86-4,7.82-9.64,7.77-20.08-.18-40.15-.09-60.23-.09H56.79c-15,0-15.14,0-15.1-15.62,0-16.62-1-33.28,3.85-49.61C53.73,206.21,70.83,185.92,95.66,171ZM85.17,189.71c-10,5.91-13,13.27-12.62,23.48.74,23.09.53,46.22.06,69.32-.15,7.51,2,9.63,9.53,9.58q63.08-.51,126.17,0c7.2.06,8.9-2.2,8.79-9-.38-23.86-.79-47.75.11-71.59.42-10.77-4.52-16.4-12.9-22-2.76,15.09-5.52,29.15-7.83,43.29-1,6.22-3.43,8.74-10.29,8.63-27.27-.43-54.56-.34-81.83,0-6.68.07-10.16-1.18-11.19-8.79-2-14.21-5.21-28.23-8-42.84Z"/><path id="Path_4379" data-name="Path 4379" class="cls-1" d="M143.57.67c11.35,0,22.7-.39,34,.08a45.88,45.88,0,0,1,44.74,44.06c.59,11.31,0,22.68.31,34,.15,5.28-1.4,6.28-6.55,5.25a363,363,0,0,0-146.35.16c-4.93,1-6-.56-5.93-5,.28-12.85-.41-25.77.78-38.52,2-21.49,20.67-38.7,42.69-39.88C119.35.23,131.48.76,143.57.76ZM96.15,61.36c15.46,12.68,29.93,11.51,38.54-1.75,3.51-5.41,7.22-6.36,12.74-6.27,13.61.23,27.23,0,40.84.11,5.75.07,10.19-1.71,9.9-8C197.89,39.59,193,39,188.1,39c-13.61.08-27.23-.14-40.84.1a12.84,12.84,0,0,1-12.68-6.52c-9.21-13.81-25.48-14.68-35.84-2.89,9.3,1.29,20,10.22,18.12,16.66C114.41,54.74,111.24,64.2,96.15,61.36Z"/><path id="Path_4380" data-name="Path 4380" class="cls-1" d="M139.66,85.47c26-.44,56.28,3.77,86.4,9.7,2.81.56,7.74-.16,7.49,5-.19,4.06-3.78,5.34-7.15,6.25a67.1,67.1,0,0,1-32.63.28,218.67,218.67,0,0,0-101.21.08,65.64,65.64,0,0,1-32.62-.41c-3.35-.93-7-2.1-7-6.27,0-4.91,4.7-4.37,7.64-5A503.41,503.41,0,0,1,139.66,85.47Z"/><path id="Path_4381" data-name="Path 4381" class="cls-2" d="M85.16,189.71c2.8,14.61,6.06,28.63,8,42.83,1,7.61,4.51,8.87,11.19,8.79,27.27-.29,54.56-.38,81.83.06,6.86.11,9.28-2.42,10.29-8.64,2.31-14.13,5.08-28.2,7.84-43.29,8.37,5.62,13.31,11.25,12.89,22-.9,23.84-.49,47.74-.11,71.6.12,6.81-1.59,9.07-8.79,9q-63.07-.54-126.17,0c-7.49.06-9.68-2.06-9.53-9.58.47-23.09.68-46.21-.06-69.31C72.21,203,75.12,195.62,85.16,189.71Zm6.27,58.15c-6.66.46-10.51,4-10.46,10.64a9.65,9.65,0,0,0,9.41,9.89,5.45,5.45,0,0,0,.7,0,9.19,9.19,0,0,0,10.2-8.08,7.86,7.86,0,0,0,.06-1.37c.25-6.75-3.26-10.36-9.91-11.07Zm117.11,10.37a10.27,10.27,0,0,0-20.54-.41,9.77,9.77,0,0,0,8.84,10.62,9.3,9.3,0,0,0,1.75,0c5.82-.08,9.67-3.63,9.95-10.22Z"/><path id="Path_4382" data-name="Path 4382" class="cls-3" d="M96.14,61.35c15.1,2.85,18.27-6.6,20.72-15C118.72,39.88,108,31,98.73,29.66c10.36-11.79,26.64-10.92,35.85,2.89a12.85,12.85,0,0,0,12.67,6.52c13.62-.25,27.24,0,40.85-.1,4.91,0,9.79.61,10.07,6.49.29,6.27-4.16,8-9.9,8-13.61-.15-27.23.12-40.85-.11-5.52-.09-9.24.86-12.74,6.27C126.07,72.86,111.6,74.05,96.14,61.35Z"/><path id="Path_4383" data-name="Path 4383" class="cls-4" d="M91.43,247.86c6.65.71,10.16,4.32,9.91,11.07a9.21,9.21,0,0,1-8.89,9.51,10.39,10.39,0,0,1-1.37-.06A9.66,9.66,0,0,1,81,259.2c0-.24,0-.47,0-.7C80.92,251.89,84.77,248.32,91.43,247.86Z"/><path id="Path_4384" data-name="Path 4384" class="cls-4" d="M208.54,258.23c-.28,6.58-4.13,10.13-9.95,10.22A9.77,9.77,0,0,1,188,259.57a10.33,10.33,0,1,1,20.54-1.34Z"/></g></svg>