<svg id="Layer_1" data-name="Layer 1" xmlns="http://www.w3.org/2000/svg" viewBox="0 0 912 1084.5"><defs><style>.cls-1{fill:#29b88d;}.cls-2{fill:#707070;}</style></defs><g id="Path_4134" data-name="Path 4134"><path class="cls-1" d="M215.8,1064.4a689.59,689.59,0,0,1-69.32-3.5c-22.54-2.29-45.19-5.75-67.32-10.27-21.84-4.47-43.7-10.1-65-16.71-21-6.54-42-14.21-62.29-22.8-20.11-8.51-40-18.11-59.26-28.55s-37.89-21.79-55.91-34-35.49-25.25-52.19-39-32.86-28.48-48.15-43.76-30-31.48-43.76-48.15-26.92-34.27-39-52.19-23.6-36.83-34-55.91-20-39.15-28.55-59.26c-8.59-20.3-16.26-41.26-22.8-62.29-6.61-21.28-12.24-43.14-16.71-65-4.52-22.13-8-44.78-10.27-67.32a688.12,688.12,0,0,1,0-138.63c2.29-22.53,5.75-45.17,10.27-67.29,4.47-21.83,10.1-43.67,16.71-64.92,6.54-21,14.21-42,22.8-62.23,8.51-20.09,18.11-40,28.55-59.19s21.79-37.83,34-55.82,25.25-35.43,39-52.1,28.48-32.8,43.76-48.06,31.48-29.94,48.15-43.66,34.26-26.86,52.19-38.94,36.83-23.54,55.9-33.88,39.16-20,59.27-28.48c20.3-8.56,41.26-16.21,62.29-22.73,21.27-6.6,43.13-12.2,65-16.66,22.13-4.51,44.78-8,67.32-10.24a690.18,690.18,0,0,1,138.64,0c22.54,2.28,45.19,5.73,67.32,10.24,21.85,4.46,43.71,10.06,65,16.66,21,6.52,42,14.17,62.29,22.73C499.82-229,519.76-219.41,539-209c19.07,10.34,37.88,21.73,55.9,33.88s35.49,25.18,52.19,38.94,32.87,28.41,48.15,43.66,30,31.42,43.76,48.06,26.92,34.2,39,52.1,23.6,36.77,34,55.82,20,39.1,28.55,59.19c8.59,20.27,16.26,41.21,22.8,62.23C869.93,206.13,875.56,228,880,249.8c4.52,22.12,8,44.76,10.27,67.29a688.12,688.12,0,0,1,0,138.63C888,478.26,884.55,500.91,880,523c-4.47,21.84-10.1,43.7-16.71,65-6.54,21-14.21,42-22.8,62.29C832,670.42,822.41,690.36,812,709.57s-21.79,37.89-34,55.91S752.76,801,739,817.67s-28.48,32.86-43.76,48.15-31.48,30-48.15,43.76-34.27,26.92-52.19,39-36.83,23.6-55.91,34-39.15,20-59.26,28.55c-20.3,8.59-41.26,16.26-62.29,22.8-21.28,6.61-43.14,12.24-65,16.71-22.13,4.52-44.78,8-67.32,10.27A689.59,689.59,0,0,1,215.8,1064.4Z"/><path class="cls-2" d="M215.8-290.1a688.59,688.59,0,0,0-69.27,3.49c-22.53,2.28-45.16,5.72-67.27,10.23-21.83,4.45-43.67,10.06-64.93,16.65-21,6.52-42,14.16-62.24,22.71-20.1,8.48-40,18.06-59.23,28.46S-145-186.84-163-174.71s-35.46,25.17-52.15,38.91S-248-107.41-263.27-92.16s-30,31.39-43.72,48S-333.89-10-346,7.92s-23.58,36.74-33.94,55.78-20,39.07-28.53,59.14C-417,143.11-424.7,164-431.24,185c-6.61,21.24-12.23,43.07-16.7,64.88-4.52,22.1-8,44.72-10.26,67.24a687.13,687.13,0,0,0,0,138.53c2.29,22.53,5.74,45.16,10.26,67.27,4.47,21.83,10.09,43.67,16.7,64.93,6.54,21,14.2,42,22.78,62.24,8.5,20.1,18.1,40,28.53,59.23s21.77,37.85,33.94,55.86,25.22,35.46,39,52.15,28.45,32.84,43.73,48.11,31.46,30,48.11,43.73,34.24,26.9,52.15,39,36.8,23.58,55.86,33.94,39.13,20,59.23,28.53c20.28,8.58,41.22,16.24,62.24,22.78,21.26,6.61,43.1,12.23,64.93,16.7,22.11,4.52,44.74,8,67.27,10.26a687.23,687.23,0,0,0,138.54,0c22.53-2.29,45.16-5.74,67.27-10.26,21.83-4.47,43.67-10.09,64.93-16.7,21-6.54,42-14.2,62.24-22.78,20.1-8.5,40-18.1,59.23-28.53s37.85-21.77,55.86-33.94,35.46-25.22,52.15-39,32.84-28.45,48.11-43.73,30-31.46,43.73-48.11,26.9-34.24,39-52.15,23.58-36.8,33.94-55.86,20-39.13,28.53-59.23c8.58-20.28,16.24-41.22,22.78-62.24,6.61-21.26,12.23-43.1,16.7-64.93,4.52-22.11,8-44.74,10.26-67.27a687.13,687.13,0,0,0,0-138.53c-2.29-22.52-5.74-45.14-10.26-67.24-4.47-21.81-10.09-43.64-16.7-64.88-6.54-21-14.2-41.91-22.78-62.18-8.5-20.07-18.1-40-28.53-59.14S789.76,25.89,777.59,7.92s-25.22-35.4-39-52.07-28.45-32.77-43.72-48-31.46-29.93-48.12-43.64-34.24-26.84-52.15-38.91-36.8-23.52-55.86-33.85-39.13-20-59.23-28.46c-20.28-8.55-41.22-16.19-62.24-22.71-21.26-6.59-43.1-12.2-64.93-16.65-22.11-4.51-44.74-7.95-67.27-10.23a688.59,688.59,0,0,0-69.27-3.49m0-1c374.73,0,678.5,302.77,678.5,677.5s-303.77,678.5-678.5,678.5S-462.7,761.13-462.7,386.4-158.93-291.1,215.8-291.1Z"/></g></svg>